<svg version="1.1" id="Layer_1" xmlns="http://www.w3.org/2000/svg" xmlns:xlink="http://www.w3.org/1999/xlink" x="0px" y="0px"
	 width="100%" viewBox="0 0 960 1024" enable-background="new 0 0 960 1024" xml:space="preserve">
<path fill="#3356f4" opacity="1.000000" stroke="none" 
	d="
M799.581360,534.503235 
	C813.228394,581.039490 826.768616,627.187378 840.269470,673.346741 
	C846.435730,694.429016 852.969849,715.417847 858.509277,736.664795 
	C863.056030,754.104736 858.105103,765.002441 842.175293,773.672058 
	C810.135437,791.109314 777.862915,808.119324 745.682373,825.298035 
	C685.729065,857.302429 625.840881,889.429626 565.795044,921.259338 
	C523.696350,943.575439 481.153717,965.024292 436.670319,982.291626 
	C412.455841,991.691040 388.052338,1000.682495 362.485138,1005.776672 
	C344.340454,1009.391785 326.341614,1009.696838 309.620422,999.927063 
	C294.259277,990.951904 285.745667,976.585510 279.504883,960.635559 
	C268.088928,931.459229 259.686401,901.266541 249.857574,871.555847 
	C222.771347,789.679626 196.017715,707.693359 169.131516,625.750977 
	C145.622025,554.099976 122.119011,482.446808 98.597878,410.799622 
	C84.784676,368.723572 70.891006,326.673828 57.143154,284.576447 
	C53.057358,272.065308 49.173149,259.450073 49.695969,246.042603 
	C50.334824,229.659485 56.184219,216.413086 69.154938,205.164963 
	C77.947632,197.539993 86.601166,189.939331 96.403015,183.755096 
	C118.380333,169.889008 142.516754,160.650848 166.761978,151.744980 
	C219.592102,132.339172 272.458374,113.031387 325.338959,93.763451 
	C370.863159,77.175934 416.483063,60.849388 461.947571,44.100491 
	C480.499878,37.265900 498.090149,38.029369 515.153870,48.258057 
	C518.003845,49.966499 520.980896,51.516079 524.035583,52.819431 
	C531.401062,55.962055 538.491089,56.730728 546.547729,53.608181 
	C572.315613,43.621170 598.394958,34.437756 624.357300,24.952822 
	C628.696106,23.367723 633.261169,23.945005 637.568970,24.487064 
	C643.224243,25.198671 644.382568,30.192551 645.156189,34.939846 
	C646.679688,44.288681 647.972351,53.677460 649.632568,63.001266 
	C655.383606,95.299591 663.477722,127.028366 672.856873,158.453735 
	C688.249390,210.027451 706.835876,260.493652 725.756470,310.831970 
	C750.016907,375.377289 771.662415,440.782471 791.399658,506.834320 
	C794.114807,515.920776 796.773621,525.024048 799.581360,534.503235 
M606.438232,247.141144 
	C598.935974,243.476776 591.119507,240.623291 583.165833,238.123840 
	C546.336670,226.550156 509.489258,225.413040 472.858093,238.680344 
	C426.604767,255.432632 392.840118,286.908783 368.608917,329.040466 
	C346.440033,367.586304 336.930939,409.725464 335.448944,453.764069 
	C334.379913,485.529633 337.141113,516.963989 347.304810,547.382019 
	C355.567902,572.111816 368.184235,594.054932 387.413483,612.076599 
	C407.333313,630.745544 430.571198,643.778320 455.809021,653.481506 
	C482.770142,663.847168 510.476471,670.439575 539.680237,668.736938 
	C555.379700,667.821594 570.215332,664.074829 583.959290,656.232300 
	C605.327026,644.039551 620.574585,625.917175 632.743347,605.100708 
	C662.802124,553.680603 669.634277,498.685883 655.529663,441.257843 
	C644.123840,394.818085 619.834839,356.412354 579.827820,329.111938 
	C548.798279,307.937622 515.020691,298.954956 477.925842,309.514008 
	C426.281311,324.214600 388.096313,368.917908 386.388458,427.886475 
	C385.752350,449.851288 390.508179,470.820251 399.295654,490.950073 
	C418.851288,535.746887 466.353546,565.623352 512.867920,561.675903 
	C526.993530,560.477173 539.993896,555.763306 550.800232,546.555054 
	C573.814392,526.944397 584.728149,501.619934 583.579895,471.515991 
	C582.564880,444.903870 566.425781,425.751038 542.172119,420.786377 
	C520.138977,416.276276 499.011230,438.788116 505.443604,460.145813 
	C506.521790,463.725830 508.760529,466.619598 510.792084,469.678070 
	C513.562134,473.848328 512.676331,478.862396 509.013794,481.810822 
	C505.416718,484.706543 500.422760,484.195496 496.901672,480.486816 
	C494.709564,478.177948 492.993439,475.524628 491.554138,472.679169 
	C479.650146,449.145264 491.243103,417.270294 515.531860,406.790100 
	C540.586548,395.979401 573.951477,407.655457 589.506104,432.732300 
	C602.164368,453.139618 604.062988,475.271729 599.340210,498.224396 
	C590.073364,543.260803 552.947449,584.010559 497.161987,579.553467 
	C468.196472,577.239136 442.435822,567.293762 420.837860,548.370544 
	C376.817200,509.801544 362.497833,460.307159 371.368866,403.596954 
	C376.774963,369.037079 394.340240,340.857483 421.542297,319.203613 
	C459.719788,288.812866 502.512634,279.279816 549.611938,294.219849 
	C582.544556,304.666138 609.168945,324.795654 630.482605,351.466980 
	C672.071106,403.509735 685.960999,463.408539 677.820923,528.809875 
	C674.141113,558.374695 664.514648,586.174988 649.628662,612.031372 
	C637.096313,633.799500 621.522949,653.045410 600.430664,667.081238 
	C570.461243,687.024353 537.047607,690.447571 502.573853,684.809326 
	C465.687653,678.776550 431.199341,665.742981 399.979919,644.862061 
	C373.680054,627.271423 353.062714,604.648438 339.500031,575.790771 
	C322.615601,539.865356 317.468140,501.582367 317.237946,462.519165 
	C317.087708,437.016327 320.425018,411.738373 326.751923,386.936493 
	C339.823151,335.696014 364.190186,291.210754 405.359100,257.083740 
	C452.583221,217.937271 506.607391,203.173950 566.873291,215.400711 
	C618.797424,225.935120 661.426697,253.002060 696.078308,292.864624 
	C698.031006,295.110992 699.965637,297.373169 701.908630,299.627991 
	C686.911194,257.513031 671.883667,215.678375 658.842651,173.159500 
	C645.809143,130.665253 635.283081,87.568657 628.333008,42.798691 
	C480.881012,95.475044 335.249695,150.952942 188.575195,201.278671 
	C222.110306,283.631775 247.722382,368.848938 277.036499,452.742615 
	C306.364502,536.676086 334.571350,621.001465 363.251129,705.161377 
	C391.905334,789.246094 420.600769,873.317444 446.200073,958.168457 
	C449.156464,958.261230 450.885468,957.138489 452.690735,956.378540 
	C483.428375,943.439941 513.388977,928.838562 542.833496,913.231140 
	C612.316284,876.401062 681.632751,839.257263 751.013550,802.234863 
	C778.354187,787.645386 805.727173,773.115784 833.001831,758.404053 
	C842.625977,753.212830 843.653748,750.351318 841.027588,739.847778 
	C840.785217,738.878357 840.562683,737.902771 840.282654,736.944153 
	C832.159119,709.137878 824.048340,681.327881 815.884033,653.533630 
	C814.359924,648.345032 813.300598,642.986084 810.833557,637.677917 
	C806.224670,640.733826 801.788879,639.930054 797.134399,638.741699 
	C786.654846,636.065979 776.087219,633.734863 765.553833,631.270508 
	C763.102417,630.697021 760.593140,630.144836 759.011536,627.974548 
	C756.948730,625.143616 755.929871,622.005188 757.459778,618.594543 
	C758.976868,615.212585 761.738831,613.622620 765.429199,613.630859 
	C771.679077,613.644836 777.522339,615.817810 783.526917,617.104675 
	C791.049438,618.716919 798.521790,620.562988 806.851624,622.502747 
	C790.462402,566.057495 774.466858,510.792267 756.799988,456.023956 
	C756.771057,458.569031 757.192993,461.032349 757.240723,463.502930 
	C757.647400,484.523560 756.225952,505.454102 753.002563,526.203430 
	C747.087524,564.279541 735.916626,600.816772 719.116272,635.513672 
	C702.834778,669.139099 682.034973,699.486938 652.932068,723.505066 
	C611.575623,757.635681 563.674255,769.806519 511.031830,764.815491 
	C473.503143,761.257385 438.580139,749.196594 406.125610,730.056702 
	C399.960815,726.421021 393.734894,722.797302 388.251984,718.156616 
	C384.207825,714.733643 383.659210,709.892395 386.424255,706.100891 
	C389.048340,702.502625 394.207214,701.569946 398.575104,703.940796 
	C399.450317,704.415833 400.259338,705.015808 401.085327,705.578125 
	C425.134613,721.949341 451.141357,733.926941 479.386871,741.142639 
	C508.027161,748.459167 536.910828,750.284668 566.002563,745.053772 
	C612.232727,736.741211 647.959351,711.540527 675.044006,674.081055 
	C717.438171,615.447754 736.952454,548.939026 739.479553,477.221497 
	C740.546387,446.947327 736.473389,417.076050 727.605896,387.997925 
	C707.960876,323.578278 667.967651,276.572113 606.438232,247.141144 
M171.569000,575.978760 
	C179.167969,599.237793 186.745758,622.503784 194.369644,645.754639 
	C222.015701,730.067688 249.676514,814.376038 277.333466,898.685547 
	C284.025787,919.086365 289.622284,939.898621 298.413330,959.533997 
	C309.737457,984.827148 327.051025,993.749695 354.468536,989.036987 
	C379.391632,984.753113 402.890320,975.737366 426.493958,967.074646 
	C429.642944,965.918884 429.391174,964.144592 428.616241,961.649719 
	C422.740082,942.732300 417.076324,923.747742 411.066559,904.873230 
	C392.525391,846.641724 372.907959,788.768066 353.123291,730.949097 
	C329.459656,661.794128 305.994202,592.571350 282.410767,523.388916 
	C254.744431,442.229126 227.067139,361.073059 199.342911,279.933044 
	C191.319046,256.449768 183.091660,233.044830 172.038284,210.741867 
	C170.037628,206.705017 167.977081,205.333008 163.221054,206.429855 
	C141.631943,211.408798 119.848915,214.983215 97.578819,215.504288 
	C81.424324,215.882248 73.706223,221.719360 69.424187,234.807770 
	C65.265869,247.517975 67.742950,259.908905 71.688705,272.039612 
	C85.128639,313.359131 98.809410,354.600281 112.384605,395.875824 
	C132.045273,455.654327 151.694077,515.436768 171.569000,575.978760 
z"/>
<path fill="#000000" opacity="1.000000" stroke="none" 
	d="
M620.953735,138.679565 
	C620.820801,137.254669 620.682007,136.254990 620.733887,135.265289 
	C620.986633,130.444107 624.133179,126.900612 628.571655,126.367683 
	C632.891724,125.848961 636.969971,128.648026 638.065430,133.416519 
	C641.134766,146.777130 642.140747,160.336899 640.933716,173.989960 
	C640.423706,179.759171 639.878052,185.561707 638.366028,191.208694 
	C636.947571,196.506348 632.550476,199.841995 627.873596,199.023239 
	C623.044373,198.177826 619.804749,193.146469 620.942383,187.501541 
	C623.419678,175.208939 624.171143,162.881790 622.882568,150.388840 
	C622.488770,146.571686 621.900452,142.828720 620.953735,138.679565 
z"/>
<path fill="#000000" opacity="1.000000" stroke="none" 
	d="
M573.399719,161.685486 
	C573.662720,165.125427 574.220825,168.110535 574.091492,171.065536 
	C573.884338,175.798920 570.802917,178.814682 566.288452,179.310867 
	C561.708923,179.814224 558.270874,177.567932 556.848267,173.005295 
	C556.406372,171.588074 556.089539,170.087967 556.006775,168.609482 
	C555.180725,153.856354 554.313721,139.104202 553.677490,124.342323 
	C553.370972,117.230110 556.456970,113.442108 562.132935,113.170029 
	C567.387939,112.918121 570.988525,117.260368 571.329041,123.929665 
	C571.963806,136.361343 573.434814,148.747009 573.399719,161.685486 
z"/>
<path fill="#000000" opacity="1.000000" stroke="none" 
	d="
M493.785156,804.037109 
	C494.181000,801.134277 494.457916,798.655579 494.894745,796.205444 
	C495.824158,790.992615 499.771759,787.867126 504.725922,788.324097 
	C509.551361,788.769226 512.849182,792.189819 512.221619,797.651733 
	C510.745667,810.497742 508.683411,823.276550 506.843567,836.080383 
	C506.347931,839.529480 505.891968,842.988342 505.253937,846.412109 
	C504.243744,851.832825 500.008331,854.969299 494.975403,854.177185 
	C489.984528,853.391724 487.006622,848.585754 487.890106,842.834473 
	C489.854065,830.049927 491.790863,817.261169 493.785156,804.037109 
z"/>
<path fill="#000000" opacity="1.000000" stroke="none" 
	d="
M643.783447,754.025696 
	C644.485840,749.664917 646.502441,746.830444 650.592407,745.923096 
	C654.657104,745.021301 657.634216,746.895386 660.238464,749.813171 
	C668.886353,759.502014 677.598755,769.133362 686.240845,778.827332 
	C687.337463,780.057373 688.326477,781.444214 689.084045,782.904358 
	C691.207214,786.996582 690.291565,791.447632 686.683838,794.060486 
	C682.961304,796.756348 678.824829,796.758972 675.758667,793.460022 
	C665.674316,782.609802 655.863770,771.503296 646.059814,760.396545 
	C644.656799,758.807129 643.805237,756.697998 643.783447,754.025696 
z"/>
<path fill="#000000" opacity="1.000000" stroke="none" 
	d="
M724.101685,717.910034 
	C720.755859,714.899170 717.540955,712.253601 714.645813,709.295044 
	C710.896545,705.463501 710.730103,700.424377 713.906250,696.756836 
	C716.968811,693.220337 721.758606,692.618164 725.946655,696.133789 
	C735.855957,704.452026 745.558472,713.025085 755.146851,721.713379 
	C759.227600,725.411072 759.335510,730.853760 756.022461,734.632629 
	C752.989563,738.091980 747.731384,738.433838 743.454834,734.883423 
	C736.946167,729.479919 730.720520,723.735657 724.101685,717.910034 
z"/>
<path fill="#000000" opacity="1.000000" stroke="none" 
	d="
M348.332428,208.699692 
	C353.806244,215.236893 358.280518,222.004562 361.866425,229.354568 
	C364.587463,234.931885 363.492920,240.524475 359.162872,243.022049 
	C354.651245,245.624359 349.476227,243.924484 346.377014,238.207596 
	C341.435974,229.092972 335.709259,220.672867 328.180267,213.440491 
	C324.026459,209.450317 324.190887,204.330460 327.846802,200.564255 
	C331.324524,196.981613 336.454895,197.085739 340.724976,201.009857 
	C343.289764,203.366806 345.643402,205.953491 348.332428,208.699692 
z"/>
<path fill="#000000" opacity="1.000000" stroke="none" 
	d="
M437.276794,146.491104 
	C443.117889,140.572861 449.982697,141.426239 453.229980,148.420044 
	C457.493713,157.603043 461.593628,166.872955 465.404510,176.251556 
	C468.000824,182.641037 464.906952,188.439880 458.927643,189.188095 
	C454.913513,189.690384 451.616547,188.293381 449.888916,184.493607 
	C445.423370,174.672150 441.100922,164.785629 436.730682,154.920914 
	C435.515015,152.176773 435.398376,149.460678 437.276794,146.491104 
z"/>
<path fill="#000000" opacity="1.000000" stroke="none" 
	d="
M578.568726,817.361694 
	C576.967224,809.222534 574.323547,801.970703 570.088440,795.241455 
	C567.326843,790.853455 568.771606,785.531860 572.821289,782.961731 
	C576.987610,780.317383 582.321716,781.633728 585.367004,786.320801 
	C591.254944,795.383240 594.842407,805.349976 596.166687,816.057556 
	C597.072632,823.382751 594.231323,827.629517 588.496704,828.250183 
	C582.835266,828.862976 579.383240,825.199890 578.568726,817.361694 
z"/>
<path fill="#000000" opacity="1.000000" stroke="none" 
	d="
M288.215759,294.899841 
	C293.294861,295.169495 297.238770,297.428986 300.813782,300.099091 
	C304.374634,302.758636 305.345367,306.636414 303.473053,310.788452 
	C301.651978,314.826813 297.410828,316.672272 293.079285,315.322083 
	C290.722992,314.587616 288.481049,313.428436 286.269562,312.300049 
	C282.605621,310.430542 280.174500,307.657562 280.496887,303.242310 
	C280.831573,298.658722 283.436859,296.002045 288.215759,294.899841 
z"/>
</svg>