<svg version="1.1" id="Layer_1" xmlns="http://www.w3.org/2000/svg" xmlns:xlink="http://www.w3.org/1999/xlink" x="0px" y="0px"
	 width="100%" viewBox="0 0 1024 768" enable-background="new 0 0 1024 768" xml:space="preserve">
<path fill="#ff400c" opacity="1.000000" stroke="none" 
	d="
M591.082764,366.123657 
	C619.688232,320.304443 648.854736,275.275879 678.317444,230.437546 
	C683.674805,222.284317 686.051270,221.817078 693.790039,227.657074 
	C709.500000,239.512589 722.708557,253.737473 733.795593,269.968567 
	C735.440674,272.376953 736.761658,274.835205 735.638855,277.870941 
	C734.703308,280.400360 736.626770,281.505524 738.122681,282.757935 
	C746.172119,289.496887 754.251709,296.199860 762.315308,302.921997 
	C777.146973,315.286285 776.985535,322.671661 761.397217,334.135590 
	C724.874695,360.994965 688.985474,388.640961 655.271667,419.008728 
	C652.482971,421.520599 649.790527,424.139191 647.534241,427.347473 
	C657.293518,423.664307 667.012634,419.870026 676.819092,416.317078 
	C720.051331,400.653870 763.934631,387.068481 808.382324,375.298645 
	C809.508606,375.000397 810.643372,374.733887 811.776794,374.463196 
	C824.105286,371.519165 829.144104,374.542694 831.954468,386.824005 
	C834.402710,397.522522 836.696289,408.256866 838.981384,418.991730 
	C839.324280,420.602600 839.701660,422.427551 839.287048,423.940857 
	C837.202393,431.549316 840.263245,438.356415 842.414246,445.257690 
	C846.678589,458.939270 851.600769,472.383850 857.768860,485.345459 
	C859.000916,487.934448 860.553650,489.779175 863.308716,491.303558 
	C868.422180,494.132782 872.058289,498.961761 875.868103,503.348389 
	C880.560059,508.750763 884.886108,514.474609 889.290405,520.121826 
	C892.007019,523.604858 893.894714,527.767883 898.821167,529.097778 
	C900.861816,529.648743 901.859131,532.076965 903.111511,533.838257 
	C926.589661,566.857605 948.656494,600.788574 968.995178,635.836060 
	C970.742310,638.846802 972.264404,641.980164 975.374023,644.003296 
	C978.273010,645.889404 976.884644,649.592590 978.474548,652.186646 
	C981.606873,657.297241 984.434570,662.595825 987.350891,667.837402 
	C991.075867,674.532227 989.113098,678.999817 981.396667,679.587585 
	C967.789001,680.624084 954.139587,681.233521 940.469543,680.841003 
	C919.661255,680.243347 898.873352,679.369446 878.142700,677.351379 
	C857.606323,675.352173 837.046143,673.596619 816.514526,671.551453 
	C793.332703,669.242310 770.163269,666.802124 747.002747,664.287292 
	C716.570312,660.982788 686.136536,657.693176 655.782837,653.691223 
	C633.684021,650.777649 611.545532,648.164185 589.422302,645.436768 
	C588.789978,645.358765 588.129883,645.505981 587.685364,645.534912 
	C586.910156,646.268616 587.079407,646.921082 587.318970,647.536499 
	C589.997314,654.417786 589.474731,656.935364 583.562256,661.455383 
	C572.428955,669.966370 559.547363,674.181091 545.857422,676.288757 
	C527.957214,679.044556 509.985046,678.210205 491.995422,677.613831 
	C470.350555,676.896118 448.694733,676.514160 427.044586,675.950562 
	C390.576721,675.001282 354.124756,673.561707 317.644409,672.941772 
	C283.170685,672.355896 248.708817,671.071106 214.241714,670.094543 
	C178.275986,669.075623 142.310623,668.042847 106.344322,667.044678 
	C83.198448,666.402283 60.051403,665.801331 36.904198,665.208618 
	C33.454067,665.120178 30.151995,664.814697 28.462740,661.166382 
	C26.760153,657.489136 28.700874,654.691101 30.938595,652.137146 
	C36.718601,645.540344 44.010925,641.302917 52.499245,639.339111 
	C55.960346,638.538330 57.671234,636.977722 57.865791,633.370911 
	C57.989609,631.075439 58.886700,628.832642 59.248787,626.536560 
	C59.856964,622.679871 62.116386,620.484558 65.892967,620.278320 
	C69.907562,620.058960 72.916374,618.250305 75.186302,615.184204 
	C87.107994,599.080933 104.094055,592.037781 123.041092,589.187256 
	C128.983124,588.293274 131.479233,585.944031 131.982712,580.365540 
	C132.200043,577.957275 132.962082,575.598206 133.558365,572.838745 
	C129.376648,573.031067 126.228432,574.649048 122.925034,575.584412 
	C119.529472,576.545837 116.248428,577.064941 113.899292,573.727478 
	C111.417725,570.201965 112.958214,567.050537 115.352638,564.209961 
	C126.628395,550.833252 137.949844,537.494995 149.226135,524.118652 
	C150.691269,522.380676 152.481659,520.829102 153.167953,518.326538 
	C149.919693,518.326538 146.820236,518.316895 143.720840,518.328491 
	C137.098465,518.353210 134.300522,514.175049 137.272461,508.140717 
	C142.056030,498.428070 147.373505,488.974518 152.029312,479.203705 
	C158.763306,465.071594 165.154068,450.774841 171.596237,436.505432 
	C174.215561,430.703552 176.141220,429.395966 182.357132,430.034241 
	C227.003662,434.618958 271.780090,435.416565 316.609558,434.631775 
	C319.253296,434.585480 321.892456,434.278809 325.265717,434.041901 
	C323.307648,431.881897 321.752747,430.056885 320.084106,428.342621 
	C300.441284,408.163239 281.096222,387.675751 259.651550,369.344604 
	C247.697540,359.126190 234.821060,350.283447 220.646942,343.380127 
	C211.617722,338.982513 210.878983,335.277161 217.734604,327.864777 
	C242.654572,300.920959 269.234436,275.699097 297.048309,251.768646 
	C302.479034,247.096176 307.944550,242.463440 313.433960,237.860031 
	C326.125183,227.217224 336.719086,226.430954 350.216705,236.015442 
	C374.412292,253.196426 397.790741,271.409546 419.676147,291.529480 
	C446.624451,316.303864 470.106628,343.802704 487.495117,376.159424 
	C502.576569,404.223114 512.096863,433.903320 513.503113,466.035492 
	C513.915161,475.450562 513.915161,484.849915 514.097839,494.362762 
	C536.663696,449.801300 565.189209,408.963165 591.082764,366.123657 
M494.745941,552.530762 
	C496.882294,535.880737 498.670258,519.199951 500.012848,502.460571 
	C502.517212,471.235352 500.263550,440.666321 489.125122,411.058258 
	C476.247162,376.826172 455.959595,347.419708 431.093475,320.947815 
	C404.846588,293.005951 374.731567,269.630188 343.703125,247.373322 
	C333.790131,240.262680 329.970520,240.719696 319.891266,249.158157 
	C296.766968,268.518066 274.552673,288.882172 253.086227,310.061249 
	C251.739716,311.389740 249.818054,312.459503 249.813889,314.809113 
	C251.601242,316.940826 254.046661,318.072113 256.309998,319.430481 
	C286.879059,337.777069 314.881958,359.451721 339.976013,384.761932 
	C372.615143,417.682281 402.254059,453.266449 431.317230,489.314178 
	C452.877167,516.055420 473.036896,543.796631 488.067871,574.901917 
	C489.112915,577.064514 490.223541,579.195374 491.303650,581.341003 
	C491.591370,581.269775 491.879089,581.198608 492.166809,581.127380 
	C493.011322,571.896362 493.855835,562.665405 494.745941,552.530762 
M208.501343,656.766357 
	C217.491623,656.903076 226.474121,657.250305 235.459656,657.560852 
	C270.569275,658.774536 305.700073,659.209778 340.811890,660.543701 
	C371.925659,661.725708 403.083099,661.762512 434.195892,662.962708 
	C442.459625,663.281494 447.124512,660.359619 449.830109,653.090271 
	C454.987762,639.232788 463.757812,628.591187 477.302368,622.182068 
	C480.235352,620.794189 480.266357,618.829529 478.145386,616.688232 
	C475.098724,613.612366 471.921692,610.664734 468.902710,607.562744 
	C466.959564,605.566162 464.687134,605.114319 462.063202,605.455872 
	C442.055695,608.060425 421.902252,608.307922 401.785797,608.928955 
	C379.135895,609.628357 356.499023,608.310547 333.898041,607.119446 
	C299.007202,605.280640 264.174011,602.311951 229.277588,600.625366 
	C197.680130,599.098145 166.013336,597.972473 134.408447,600.497437 
	C114.582207,602.081360 96.594826,608.169312 83.464211,624.404846 
	C81.158752,627.255554 78.304878,629.750061 74.828285,631.055847 
	C71.857193,632.171753 70.778481,634.284180 70.412254,637.073547 
	C69.356773,645.112610 68.510918,653.312012 57.036060,652.573792 
	C107.191223,653.968140 157.346375,655.362488 208.501343,656.766357 
M425.791748,535.706970 
	C397.945190,507.492706 370.067627,479.308868 342.301880,451.015320 
	C339.628815,448.291473 336.903625,447.074768 333.088531,447.251556 
	C322.612610,447.737000 312.124084,447.980621 301.638153,448.213043 
	C280.484711,448.681915 259.343384,447.929779 238.218979,447.063538 
	C221.765182,446.388855 205.320038,445.228241 188.917404,443.764221 
	C184.518616,443.371582 182.214966,444.150726 180.484039,448.295685 
	C173.037903,466.126404 164.595276,483.499786 155.828583,500.716522 
	C155.356445,501.643768 154.287598,502.574615 155.009003,503.547363 
	C158.407822,503.547363 161.564148,503.713562 164.698547,503.521576 
	C195.008804,501.664886 225.280106,502.530365 255.498276,505.113647 
	C276.373291,506.898254 297.112000,509.963684 317.909515,512.474365 
	C348.521973,516.169983 376.733398,526.074890 402.941010,542.258728 
	C422.695740,554.457703 440.821625,568.843933 459.273926,582.813171 
	C461.015137,584.131348 462.590149,585.922974 465.237488,586.212830 
	C462.155914,576.296997 449.007477,559.506958 425.791748,535.706970 
M818.119507,426.597107 
	C819.080933,426.326843 820.032104,425.871124 821.005493,425.817322 
	C826.087341,425.536682 826.804382,422.903076 825.668457,418.441132 
	C823.699097,410.705811 822.184387,402.855072 820.459778,395.056976 
	C818.481750,386.112488 818.475464,386.125214 809.480042,388.508453 
	C761.971619,401.095184 715.182983,415.960449 669.106384,433.048492 
	C651.716980,439.497589 634.683167,446.814850 620.556519,459.235931 
	C597.159607,479.807953 577.359680,503.603516 559.446533,528.991943 
	C556.468506,533.212708 553.384033,537.537842 551.345947,543.413940 
	C556.414978,540.534790 559.499207,536.744629 563.120789,533.633728 
	C593.556702,507.489838 628.341553,488.787750 665.263367,473.708099 
	C714.564453,453.572418 765.396973,438.401306 818.119507,426.597107 
M752.025024,503.593536 
	C729.615051,505.419525 707.362122,508.311279 685.413147,513.309326 
	C647.580994,521.924072 610.610718,532.791504 577.769897,554.451416 
	C566.244141,562.053101 555.856506,570.914917 547.486511,582.023987 
	C561.576538,572.671265 576.433533,564.922546 592.094971,558.694336 
	C630.433716,543.447693 670.603027,538.542847 711.456543,537.803528 
	C742.962280,537.233337 774.352539,539.799805 805.743713,542.029602 
	C820.848145,543.102417 835.930237,544.487122 851.030579,545.622437 
	C864.266296,546.617493 877.513367,547.461304 890.621643,548.362732 
	C891.257019,547.204346 890.757568,546.467041 890.374146,545.768982 
	C883.029724,532.397278 873.878113,520.356506 863.428650,509.276825 
	C862.510132,508.302979 861.528809,507.452484 860.071960,507.304840 
	C847.165710,505.996826 834.281555,504.421478 821.354065,503.382996 
	C798.563232,501.552216 775.750488,501.964539 752.025024,503.593536 
M579.234253,409.666229 
	C569.107605,425.926544 559.069031,442.242554 548.835754,458.435516 
	C528.397827,490.776245 513.213074,525.049500 509.756256,563.672791 
	C509.405396,567.592468 508.095154,571.500671 509.207947,575.564392 
	C510.850952,572.757629 512.092407,569.873840 513.280151,566.968140 
	C518.197571,554.938110 523.491699,543.077881 529.433472,531.517395 
	C545.827209,499.621033 565.017456,469.366608 584.033813,439.021942 
	C605.013428,405.544403 627.128723,372.835846 652.433167,342.424133 
	C671.535522,319.466125 691.940186,297.752899 715.207214,278.883118 
	C720.924194,274.246643 720.861389,273.987213 716.321533,268.210693 
	C709.301697,259.278687 701.746582,250.863220 692.911011,243.669403 
	C691.395935,242.435913 690.136475,240.746323 687.269592,240.547073 
	C650.431946,295.889771 615.000854,352.456055 579.234253,409.666229 
M595.930298,529.358337 
	C603.832886,525.400696 611.946106,521.923767 620.228271,518.850403 
	C656.624756,505.344604 694.188599,496.905182 732.745483,492.548950 
	C766.456299,488.740204 800.153259,488.380310 833.916870,491.606018 
	C837.889343,491.985504 841.912048,493.803406 846.224487,492.045258 
	C845.930237,490.983948 845.803345,490.163513 845.483765,489.426636 
	C838.786682,473.982880 832.554565,458.362030 828.008789,442.131866 
	C827.058411,438.738892 825.440857,438.216553 822.177368,438.933197 
	C778.856323,448.446228 736.381958,460.795288 694.761841,476.153992 
	C659.325378,489.230774 625.033020,504.551117 593.819214,526.106262 
	C589.084290,529.375977 584.619629,533.036987 580.029968,536.517029 
	C580.229614,536.754578 580.429260,536.992126 580.628906,537.229675 
	C585.504150,534.712158 590.379333,532.194641 595.930298,529.358337 
M631.561401,391.018311 
	C608.630737,423.455780 587.522400,457.044525 567.831787,491.559082 
	C571.749084,487.689728 575.324951,483.587311 578.743896,479.357941 
	C601.967102,450.630035 628.327942,424.979828 656.145813,400.799225 
	C688.094971,373.027557 721.780396,347.431183 755.676697,322.110687 
	C757.094666,321.051453 758.897949,320.265289 759.352905,317.475555 
	C748.398987,308.314606 737.174316,298.957825 725.993469,289.549133 
	C723.907593,287.793793 722.677246,289.288879 721.333801,290.510620 
	C713.696838,297.455658 705.866638,304.203705 698.482300,311.408264 
	C673.728333,335.559631 652.028076,362.307770 631.561401,391.018311 
M936.271179,624.412964 
	C910.138367,600.452881 878.905945,588.825500 843.932922,586.337219 
	C821.028259,584.707642 798.124023,583.113403 775.180115,582.032349 
	C741.735291,580.456482 708.337585,579.480530 674.874268,582.066284 
	C645.882202,584.306519 617.395630,589.006836 589.577576,597.410767 
	C577.594971,601.030762 565.666199,604.987854 553.945557,611.265381 
	C555.039856,611.371338 555.378845,611.498291 555.658081,611.417847 
	C586.036438,602.663513 617.156128,598.602173 648.624084,596.848999 
	C672.421265,595.523254 696.187317,596.196472 719.987976,597.508423 
	C757.554077,599.579163 794.915283,603.663879 832.246338,608.027649 
	C866.614563,612.045166 900.909302,616.703247 934.493225,625.445496 
	C934.999817,625.577393 936.666260,627.261414 936.271179,624.412964 
M747.324951,551.374756 
	C739.993958,551.275330 732.663086,551.166199 725.331970,551.078125 
	C697.645935,550.745667 670.071472,551.755676 642.813049,557.277832 
	C611.653564,563.590271 582.166443,573.967834 555.929993,592.403748 
	C553.588745,594.048889 550.955505,595.433411 548.628967,598.772034 
	C551.184631,597.864197 552.755188,597.412964 554.239075,596.763672 
	C589.552063,581.311951 626.769043,573.494202 664.910095,569.939575 
	C697.115356,566.938171 729.407654,567.138672 761.738647,568.496155 
	C790.356323,569.697754 818.922852,571.486633 847.451050,573.867004 
	C877.711548,576.392029 905.875122,585.196106 930.679077,603.322693 
	C931.998047,604.286682 933.413330,605.118774 934.783813,606.012268 
	C926.535278,591.471375 917.574646,577.836609 908.586731,564.219727 
	C907.876160,563.143188 907.196228,561.510132 905.654602,561.896912 
	C901.590759,562.916626 897.699341,561.544800 893.746948,561.301514 
	C872.480286,559.992554 851.212524,558.652527 829.971130,556.991211 
	C802.757568,554.862793 775.540100,552.832703 747.324951,551.374756 
M659.858093,641.605469 
	C676.883789,643.480713 693.911621,645.337158 710.934753,647.235535 
	C735.894775,650.019043 760.830444,653.038940 785.815002,655.579773 
	C815.595093,658.608337 845.429443,661.099854 875.214966,664.077942 
	C905.240051,667.080078 935.326233,668.109375 965.478577,667.640991 
	C967.385620,667.611328 969.513000,668.011719 971.319458,665.496643 
	C967.403931,662.391907 963.676453,659.053711 960.673035,655.008667 
	C960.176270,654.339661 958.499207,654.425232 957.358337,654.375488 
	C947.879517,653.962097 938.391052,653.731079 928.919861,653.191345 
	C912.307556,652.244629 895.682434,651.392822 879.104126,650.005859 
	C849.933899,647.565430 820.786926,644.869019 791.705200,641.454590 
	C764.782166,638.293579 737.896179,634.890747 711.125732,630.643250 
	C686.117126,626.675293 661.078918,623.471436 635.662964,623.946411 
	C616.199768,624.310059 596.975403,626.289001 577.960693,630.729004 
	C587.303284,632.321960 596.652893,633.533142 606.003967,634.732422 
	C623.655640,636.996399 641.308167,639.253418 659.858093,641.605469 
M241.084213,538.502197 
	C245.499771,537.359924 250.037216,537.736389 254.516907,537.498962 
	C289.364136,535.652283 324.109650,536.399780 358.595184,542.274658 
	C370.974426,544.383484 382.928284,548.114319 394.530304,552.991150 
	C377.329041,541.789185 358.850464,533.586426 338.778595,529.349792 
	C317.102234,524.774475 295.104584,522.343323 273.084625,520.073303 
	C241.094070,516.775391 209.079865,514.485352 176.888016,516.184998 
	C174.179230,516.328064 172.206940,517.049561 170.447708,519.171509 
	C163.324402,527.763245 156.049088,536.228760 148.863235,544.768921 
	C145.849564,548.350586 142.460587,551.667419 139.733414,556.614746 
	C145.140427,555.213867 149.613525,554.000732 154.113693,552.898010 
	C182.435684,545.957764 211.001450,540.473755 241.084213,538.502197 
M186.387939,559.072998 
	C175.517410,561.529602 164.629593,563.912903 153.783127,566.471497 
	C147.727783,567.899963 147.027817,569.107605 147.403763,576.010071 
	C172.487030,568.904968 197.983337,564.865540 224.027405,563.366943 
	C258.924774,561.358887 293.575348,563.847717 328.200928,567.342102 
	C352.193268,569.763489 376.117950,572.853516 400.080811,575.574585 
	C401.537933,575.740051 403.236206,576.294922 404.782928,575.078003 
	C396.705353,568.610229 377.549225,559.797119 366.778381,557.254700 
	C341.498779,551.287476 315.674896,550.154602 289.928192,549.576050 
	C255.413132,548.800476 221.133362,552.252441 186.387939,559.072998 
M271.496887,576.121460 
	C234.964325,574.388184 198.769165,576.478027 163.175964,585.463379 
	C174.329788,586.100647 185.467316,586.160217 196.599152,586.485901 
	C233.884842,587.576721 271.072968,590.139709 308.289032,592.475098 
	C342.021942,594.591797 375.809265,596.347656 409.646606,595.620728 
	C419.551422,595.407898 429.449402,594.874573 439.350494,594.488098 
	C434.243408,592.840271 429.099304,591.942383 423.920746,591.341125 
	C399.138702,588.463928 374.342560,585.708130 349.560577,582.830322 
	C323.931549,579.854126 298.287537,577.080994 271.496887,576.121460 
M854.788757,623.969055 
	C791.457764,613.074585 666.679993,605.504395 636.648010,610.943420 
	C657.385864,610.315369 677.105042,612.365540 696.659119,615.436279 
	C736.938599,621.761780 777.301819,627.406860 817.857605,631.567322 
	C850.975281,634.964783 884.176880,637.448486 917.404297,639.531189 
	C924.535767,639.978149 931.698547,639.664368 938.848938,640.330627 
	C911.574463,632.411621 883.843384,627.143616 854.788757,623.969055 
M426.858368,504.615021 
	C424.034393,501.128082 421.210419,497.641144 418.386444,494.154205 
	C431.973755,513.904785 442.699646,535.660278 459.981567,552.674133 
	C450.408539,535.925476 439.419678,520.158691 426.858368,504.615021 
z"/>
<path fill="#000000" opacity="1.000000" stroke="none" 
	d="
M539.030518,175.067139 
	C530.735352,187.613617 527.386108,201.014572 528.825989,215.670395 
	C529.115662,218.618454 528.467041,221.643234 527.357483,224.462006 
	C526.202698,227.395798 523.982361,229.218842 520.843201,228.874893 
	C517.787170,228.540054 515.639343,226.488159 515.132019,223.380783 
	C514.760803,221.106537 514.830200,218.737289 514.905945,216.416992 
	C515.320068,203.735550 508.550049,193.788101 496.583191,189.133911 
	C487.750702,185.698730 478.699280,185.582626 469.546509,186.896957 
	C465.481689,187.480667 461.582611,187.730484 459.833313,183.232437 
	C458.105499,178.789566 460.875427,176.080719 464.423279,173.905701 
	C485.669891,160.880447 500.915344,142.647308 511.214752,120.077301 
	C512.556763,117.136497 513.297424,114.735046 510.930908,111.838219 
	C508.995361,109.468887 509.034851,106.529930 511.242035,104.059769 
	C513.577881,101.445503 516.343750,101.430244 519.435059,102.706963 
	C524.161194,104.658867 525.734680,109.046143 527.278259,113.162933 
	C533.386475,129.453781 543.731018,141.927475 559.267212,149.971191 
	C562.088135,151.431671 564.271240,153.482056 563.784302,157.014008 
	C563.314270,160.423325 561.004883,162.189316 557.782776,162.848618 
	C550.053467,164.430145 544.210938,168.916458 539.030518,175.067139 
M522.326355,132.655518 
	C519.761536,129.223969 519.406311,133.049667 518.882812,133.971725 
	C514.195007,142.228455 509.143860,150.222855 503.015472,157.499908 
	C498.440918,162.931900 493.333099,167.866364 487.439514,173.412582 
	C499.619446,175.492050 509.846252,179.797928 518.516418,188.734604 
	C522.602173,174.185593 530.043518,162.906143 542.627075,154.754700 
	C534.188782,148.599167 528.015076,141.259369 522.326355,132.655518 
z"/>
<path fill="#000000" opacity="1.000000" stroke="none" 
	d="
M724.872864,125.827873 
	C727.402527,122.649231 730.294067,121.957375 733.494202,123.730446 
	C736.425354,125.354454 737.168335,128.424377 736.054260,131.116165 
	C732.103455,140.661667 738.480896,146.431946 743.578857,152.579910 
	C745.680298,155.114182 748.691711,156.821762 751.742493,158.225754 
	C754.705200,159.589188 756.644897,161.627289 756.496399,165.118439 
	C756.354614,168.452774 754.080078,169.966782 751.407349,171.255203 
	C741.728943,175.920853 736.091919,183.721970 733.868225,194.122360 
	C732.907959,198.613876 734.638367,202.983398 734.449463,207.480377 
	C734.274902,211.637589 733.860168,215.273956 728.979431,216.171661 
	C725.123657,216.880859 722.740723,214.393173 721.278503,208.832748 
	C720.586426,206.200806 720.676880,203.559418 720.573486,200.907715 
	C720.158936,190.272842 713.445740,180.668320 704.108337,177.375809 
	C700.896240,176.243179 697.695129,176.005981 694.321655,176.917938 
	C690.638428,177.913635 687.256409,177.434006 685.664490,173.293732 
	C684.094238,169.209686 686.211365,166.560883 689.504211,164.644302 
	C705.251404,155.478806 716.530579,142.253647 724.872864,125.827873 
M722.739685,174.652679 
	C723.743835,175.663620 724.291199,177.291412 726.343933,177.191254 
	C729.526672,172.764236 732.955383,168.392426 737.322876,164.555908 
	C732.577576,160.047928 728.557800,155.506439 725.429138,149.963654 
	C720.366089,155.342407 715.576355,160.430832 710.548096,165.772690 
	C715.029724,168.443558 718.997131,170.831314 722.739685,174.652679 
z"/>
<path fill="#ff400c" opacity="1.000000" stroke="none" 
	d="
M642.997070,41.073540 
	C645.888794,44.084854 648.778809,46.657028 651.144043,49.644627 
	C657.174561,57.261848 654.919128,64.487404 645.641724,67.272255 
	C640.179810,68.911797 637.021179,72.638702 634.907104,77.609909 
	C632.739380,82.707237 631.715088,88.102417 630.734314,93.508629 
	C629.996704,97.574074 627.980408,100.570824 623.493286,100.161972 
	C618.922546,99.745499 617.829102,96.234985 617.668884,92.211464 
	C617.173828,79.780258 609.650085,70.817902 597.623047,68.207680 
	C594.161438,67.456413 590.483154,66.819397 589.838806,62.430752 
	C589.165527,57.845299 592.438049,56.008717 595.880737,54.359669 
	C607.655701,48.719501 615.915771,39.710251 621.262756,27.886526 
	C624.371948,21.011032 627.425354,20.340185 633.454712,24.942945 
	C634.616333,25.829708 636.119324,26.254927 637.407837,26.992594 
	C640.779907,28.923018 642.826660,31.689758 641.320923,35.630051 
	C640.416443,37.996925 641.104309,39.417698 642.997070,41.073540 
M621.918579,68.337051 
	C622.862732,69.159157 624.015198,69.930031 624.822632,68.452660 
	C627.933716,62.760101 632.659546,58.752975 638.169312,56.119473 
	C634.151062,51.893402 630.574402,48.131775 626.805542,44.168072 
	C622.992737,50.125309 617.462585,54.438042 612.232483,59.657150 
	C615.657898,62.499992 618.928345,64.792038 621.918579,68.337051 
z"/>
<path fill="#000000" opacity="1.000000" stroke="none" 
	d="
M316.461273,129.569519 
	C320.155334,131.585068 323.607666,133.155167 327.450409,133.817596 
	C330.552368,134.352310 332.547607,136.349518 333.056793,139.432755 
	C333.589539,142.658554 331.881531,144.907837 329.066376,146.197754 
	C323.211090,148.880676 319.065887,153.277695 316.080536,158.847763 
	C314.337372,162.100113 313.282990,165.384125 314.094238,169.319305 
	C314.822449,172.851852 314.792023,176.589676 313.355438,180.133926 
	C312.125061,183.169510 310.267426,185.380188 306.734711,185.129913 
	C303.225006,184.881256 301.533325,182.465485 300.830292,179.291473 
	C300.400085,177.349197 300.076874,175.367340 299.907501,173.385986 
	C299.207428,165.197067 295.188599,161.513504 286.799805,161.662460 
	C283.643066,161.718521 280.490204,162.040817 277.337616,162.270157 
	C273.985260,162.514053 270.967804,162.084213 269.431671,158.521484 
	C267.882324,154.928146 269.838837,152.452072 272.190186,150.177994 
	C278.561218,144.016342 284.081177,137.177521 288.765015,129.656143 
	C289.904510,127.826286 291.211487,126.079483 291.330994,123.901726 
	C290.820068,122.242409 289.213013,122.319656 288.135406,121.636436 
	C285.458649,119.939362 284.067932,117.625458 285.058105,114.474892 
	C285.990356,111.508820 288.067535,109.796371 291.330078,109.702202 
	C296.257507,109.559975 299.915985,111.590050 302.608185,115.730751 
	C306.164490,121.200432 310.171509,126.284523 316.461273,129.569519 
M306.854248,138.739807 
	C305.137634,137.455658 303.421051,136.171509 301.351593,134.623383 
	C297.949524,139.455093 294.706055,144.061554 291.366425,148.804565 
	C296.096710,150.436600 299.996094,151.781967 304.162079,153.219315 
	C306.642395,149.652161 309.151215,146.044067 311.514618,142.645035 
	C310.509003,140.485504 308.696381,140.158386 306.854248,138.739807 
z"/>
<path fill="#ff400c" opacity="1.000000" stroke="none" 
	d="
M201.306396,268.329285 
	C196.923859,277.672943 196.480606,286.928223 199.462158,296.342804 
	C200.575439,299.858154 201.344696,303.196625 197.880005,305.842957 
	C194.523834,308.406433 191.665833,306.726135 188.820908,304.699921 
	C181.412292,299.423431 173.410370,298.842773 165.123947,302.150696 
	C161.827240,303.466736 158.958115,303.609253 156.531158,300.782104 
	C154.042862,297.883545 154.805099,294.996643 156.765228,292.107452 
	C163.083298,282.794647 162.672913,273.466095 156.819824,264.081635 
	C153.743088,259.148499 155.191452,257.372986 159.561523,253.475372 
	C167.277969,246.593170 176.696167,248.360748 185.448746,246.895447 
	C189.127625,246.279541 192.937439,245.452454 196.835587,246.309662 
	C205.503754,248.215851 208.609161,254.410141 204.624207,262.319733 
	C203.652390,264.248657 202.528061,266.100739 201.306396,268.329285 
M185.688248,273.507324 
	C186.454376,268.970215 189.316696,265.043152 189.851044,259.935242 
	C183.895767,259.573792 178.399384,260.741058 172.885315,261.505157 
	C171.376938,261.714203 171.137421,263.089172 171.585052,264.236176 
	C174.353897,271.331116 174.943100,278.662903 173.676529,285.744202 
	C175.428894,287.267578 177.057037,286.789642 178.447281,287.239136 
	C182.641113,288.595123 184.184570,286.745087 184.384933,282.693329 
	C184.523285,279.895142 185.159988,277.121613 185.688248,273.507324 
z"/>
<path fill="#ff400c" opacity="1.000000" stroke="none" 
	d="
M421.479523,50.562195 
	C422.383575,51.334267 423.025635,51.865139 423.665649,52.398502 
	C425.944366,54.297359 427.713531,56.491970 427.009003,59.691109 
	C426.251648,63.129951 423.541138,64.562401 420.451141,64.995773 
	C414.475189,65.833900 410.553833,69.401512 407.385925,74.126389 
	C405.551544,76.862389 405.202393,79.977180 405.023804,83.185783 
	C404.817108,86.899094 403.016785,89.647079 399.120941,90.144943 
	C395.105469,90.658119 392.840881,88.198006 391.931305,84.634468 
	C388.523438,71.283440 380.933777,61.303192 368.594910,55.014095 
	C365.999054,53.690994 364.636200,51.569798 364.667175,48.579044 
	C364.699280,45.477539 366.391937,43.654896 369.110016,42.597931 
	C380.028473,38.352173 387.284424,30.519361 391.408447,19.692982 
	C392.547913,16.701653 394.525909,14.901797 397.683197,14.890085 
	C400.910614,14.878111 402.609344,16.863791 403.760406,19.847336 
	C408.017487,30.881849 412.256287,41.966686 421.479523,50.562195 
M398.459320,40.348820 
	C397.759949,39.557873 397.820221,37.937660 395.764587,38.258587 
	C393.045197,42.580441 388.603027,45.588753 384.351715,49.524952 
	C389.280212,54.279202 393.796722,58.982754 397.520538,64.394005 
	C401.255035,61.072899 404.336182,58.332851 407.782715,55.267834 
	C404.463745,50.606750 401.101166,46.079197 398.459320,40.348820 
z"/>
<path fill="#000000" opacity="1.000000" stroke="none" 
	d="
M561.742554,285.758057 
	C565.863037,286.680115 567.664856,289.890961 570.054810,292.373932 
	C575.271851,297.793854 579.644165,303.897125 583.835815,310.100555 
	C586.718262,314.366364 585.325317,319.203522 580.619324,320.010559 
	C570.464233,321.752075 566.559937,329.190979 563.252502,337.418945 
	C562.137817,340.192017 561.243286,343.064850 560.420959,345.941498 
	C559.232422,350.099152 556.730164,352.255371 552.322632,351.346771 
	C548.143066,350.485168 547.562439,347.295624 547.702454,343.675842 
	C548.034973,335.079620 545.519714,332.568909 536.628784,332.619690 
	C533.867859,332.635468 531.794434,331.628632 530.496399,329.148956 
	C529.277344,326.820099 529.631104,324.619263 531.134033,322.585144 
	C534.298401,318.302490 537.628418,314.137451 540.674377,309.773285 
	C544.825684,303.825409 546.965210,297.349609 545.247742,289.971649 
	C544.512756,286.813934 545.946899,284.442596 548.616760,282.833557 
	C551.082092,281.347656 553.521606,281.723663 555.470093,283.704926 
	C557.167725,285.431061 559.095398,285.901917 561.742554,285.758057 
M553.642639,324.301636 
	C558.859131,320.094757 561.731506,313.665344 568.070190,310.252655 
	C564.900085,306.274933 562.691956,302.483215 558.481506,299.737671 
	C556.996460,307.924835 552.997620,314.448486 549.078003,321.197266 
	C550.663147,322.333313 551.859253,323.190460 553.642639,324.301636 
z"/>
<path fill="#ff400c" opacity="1.000000" stroke="none" 
	d="
M834.188049,240.313873 
	C837.612366,236.589478 841.067871,237.434753 844.320374,239.672241 
	C847.342041,241.750931 847.443420,244.574280 846.400574,248.071106 
	C843.342102,258.326355 846.948853,267.721375 850.925476,276.957184 
	C851.777588,278.936249 853.082031,280.715668 854.031982,282.658478 
	C856.435913,287.575104 854.936707,291.107452 849.671753,292.604645 
	C846.632690,293.468872 843.559998,294.038910 840.836548,295.858185 
	C837.336975,298.195892 834.967163,301.160645 834.115845,305.352142 
	C833.720764,307.297821 833.053467,309.200409 832.374512,311.073578 
	C831.052795,314.720245 828.401123,316.554474 824.608765,315.470734 
	C820.841858,314.394287 819.397217,311.291138 820.105469,307.629578 
	C821.119324,302.387909 822.396118,297.303345 820.678223,291.900818 
	C818.961731,286.502747 816.327515,281.903473 811.873901,278.309479 
	C805.385376,273.073364 805.942261,268.557220 813.519409,264.777802 
	C819.891907,261.599304 825.141296,257.191925 829.675598,251.679443 
	C832.415222,248.348877 832.129333,244.151382 834.188049,240.313873 
M833.979553,284.948303 
	C835.480957,283.634613 838.972412,283.615936 838.145935,280.831879 
	C836.817993,276.358673 835.735840,271.670380 833.126221,267.257568 
	C830.277405,269.445038 827.954468,271.228729 825.205078,273.339844 
	C828.931274,276.888702 829.388367,282.141602 833.979553,284.948303 
z"/>
</svg>