<svg version="1.1" id="Layer_1" xmlns="http://www.w3.org/2000/svg" xmlns:xlink="http://www.w3.org/1999/xlink" x="0px" y="0px"
	 width="100%" viewBox="0 0 1024 896" enable-background="new 0 0 1024 896" xml:space="preserve">
<path fill="#7a90f9" opacity="1.000000" stroke="none" 
	d="
M105.823631,508.860138 
	C137.983078,459.147766 171.838348,411.075226 207.422455,364.202087 
	C243.815079,316.263977 282.224365,269.987823 321.869873,224.735458 
	C342.034515,201.719040 357.375519,175.679489 371.532349,148.789093 
	C376.576355,139.208115 381.821838,129.714096 388.012238,120.808853 
	C395.572479,109.933014 404.471619,106.281288 415.473846,112.186028 
	C429.026245,119.459435 442.780640,117.364479 456.656342,116.149254 
	C477.836182,114.294342 497.695465,107.699989 516.409729,97.731491 
	C531.415771,89.738266 545.734558,90.377686 561.217102,97.705025 
	C598.427002,115.315193 635.517090,133.081085 671.057495,153.921707 
	C671.632141,154.258667 672.231384,154.553406 672.812683,154.879349 
	C682.324524,160.212982 682.280212,160.171326 689.714966,152.380478 
	C715.195984,125.678848 738.648193,97.357910 758.698120,66.304054 
	C761.948547,61.269825 765.148071,56.188301 768.675598,51.350590 
	C775.206665,42.393597 784.341125,38.210133 795.258179,37.698219 
	C810.552124,36.981079 825.849731,36.341499 841.143738,35.624050 
	C842.791138,35.546772 844.480530,35.364281 846.054993,34.903969 
	C852.833984,32.922028 855.860840,34.182354 858.509644,40.816902 
	C862.831787,51.642582 866.954590,62.547977 871.146301,73.425613 
	C894.442017,133.878021 917.846741,194.288803 940.954590,254.812943 
	C947.677307,272.421112 952.987488,290.344055 952.516663,309.679382 
	C951.918335,334.251160 942.930237,355.733276 930.165649,376.029022 
	C917.480774,396.198181 901.305969,413.529968 884.477112,430.159454 
	C839.342834,474.759033 798.198608,522.774109 759.870972,573.291077 
	C725.924744,618.033081 693.428833,663.825012 660.557251,709.347778 
	C625.533508,757.851074 589.648743,805.697388 550.489868,850.987854 
	C543.077148,859.561401 535.244019,867.678162 525.443298,873.748352 
	C512.574280,881.718933 498.923340,883.780823 484.253937,880.684448 
	C466.351624,876.905579 450.779785,867.777649 434.899719,859.365173 
	C385.317139,833.098755 339.126404,801.456665 292.936127,769.802979 
	C253.899384,743.051514 214.792236,716.386108 173.375336,693.363464 
	C143.921585,676.990906 113.653275,662.364807 81.547020,651.827087 
	C74.415871,649.486511 67.396828,646.910706 61.011650,642.823853 
	C48.877636,635.057556 43.667244,620.960266 47.808266,607.137451 
	C50.665585,597.599609 55.788666,589.214294 60.873085,580.799377 
	C75.435150,556.698486 90.046204,532.627930 105.823631,508.860138 
M709.228516,514.752563 
	C749.025452,462.226807 786.872070,408.378876 821.049683,351.302429 
	C813.323364,348.412598 806.483826,345.860718 799.882751,342.720123 
	C776.235901,331.469788 753.783020,318.020691 730.917419,305.339233 
	C679.930359,277.061371 629.034973,248.618073 578.125305,220.200806 
	C522.999939,189.430374 467.894318,158.624725 412.799805,127.799171 
	C406.724304,124.399925 405.270966,124.633194 401.357056,130.339523 
	C391.721649,144.387497 383.999939,159.534470 375.952118,174.496063 
	C372.989166,180.004471 369.911224,185.451019 366.601807,191.439499 
	C370.542053,191.686859 373.569794,192.027603 375.940338,194.653442 
	C409.613373,231.952957 427.502838,275.837158 430.038300,325.861664 
	C431.376923,352.272430 426.677551,377.917450 417.445129,402.694550 
	C384.512268,491.076813 305.173401,544.298096 211.015793,544.840942 
	C179.758514,545.021240 149.486557,538.646912 120.747620,525.995850 
	C116.800850,524.258423 114.636719,524.660583 112.287315,528.493713 
	C98.881454,550.365662 85.204765,572.071411 71.677261,593.869141 
	C68.691315,598.680542 65.841690,603.598755 64.086952,609.027771 
	C60.740368,619.381653 63.548340,626.052734 73.151337,630.932861 
	C78.065781,633.430420 83.186058,635.409424 88.398804,637.169495 
	C121.985092,648.510437 153.716232,663.944275 184.551498,681.243774 
	C221.636932,702.049683 256.927185,725.713928 291.965057,749.747437 
	C334.280090,778.772583 376.436462,808.039490 421.078308,833.470276 
	C427.937744,837.377869 434.962311,840.995605 440.901550,844.202637 
	C530.349426,733.800659 622.955444,627.302551 709.228516,514.752563 
M747.961060,489.414032 
	C713.108765,537.214172 676.419617,583.587524 638.904724,629.307068 
	C598.967041,677.979309 558.785706,726.451599 518.746033,775.040222 
	C517.371826,776.707947 514.314148,778.368591 516.197998,780.810913 
	C518.388245,783.650269 520.082703,787.780212 524.789429,787.483765 
	C529.632996,787.178589 532.427185,789.667664 533.435730,794.042603 
	C534.182861,797.283325 536.056824,799.110046 538.741333,800.791626 
	C546.116089,805.411316 554.424622,807.803711 562.346924,811.464539 
	C576.532349,794.771973 589.729919,777.610046 602.832153,760.384644 
	C646.711365,702.696838 687.743164,642.927673 731.008362,584.789368 
	C770.231567,532.082458 811.162903,480.816772 857.734619,434.297028 
	C858.980713,433.052246 860.508118,431.930267 860.978149,429.691254 
	C859.551880,429.592896 858.254028,429.489410 856.954468,429.415863 
	C838.625000,428.378418 820.455811,426.222321 802.925720,420.511810 
	C798.370117,419.027771 796.082092,420.391388 793.640076,424.148621 
	C779.291748,446.224152 763.990723,467.642395 747.961060,489.414032 
M359.809845,359.482819 
	C361.279724,353.839600 362.155182,348.093842 362.599701,342.290253 
	C365.178528,308.619934 357.531708,276.839600 344.585907,246.086334 
	C342.559723,241.273041 340.568604,236.354172 337.000488,231.476578 
	C327.871429,242.358551 319.128113,252.786774 310.375885,263.207550 
	C308.950500,264.904694 309.523224,266.567963 310.274841,268.328766 
	C312.888519,274.451874 315.566498,280.552002 317.992950,286.749786 
	C327.282806,310.478577 327.172760,333.957001 314.830780,356.580658 
	C301.529297,380.963196 282.254700,400.007660 258.735229,414.345184 
	C237.245728,427.445221 214.494354,431.695984 191.071640,418.517090 
	C188.535126,417.089935 187.465607,418.493469 186.238037,420.207092 
	C182.746918,425.080505 179.113861,429.856812 175.753052,434.817932 
	C171.404175,441.237579 166.456528,447.280029 162.766006,454.091583 
	C164.846771,456.341431 167.247513,457.171265 169.516068,458.108002 
	C179.628708,462.283783 190.264160,464.140656 201.124008,464.664520 
	C225.536514,465.842041 249.211472,461.438965 272.425720,454.432617 
	C291.754211,448.599060 309.653137,439.816742 324.402679,425.691803 
	C343.157990,407.730835 354.101257,385.435791 359.809845,359.482819 
M636.033081,187.388672 
	C686.554199,215.497360 736.509277,244.577225 785.557922,275.185944 
	C813.729004,292.766052 840.709229,311.994049 864.781006,335.032013 
	C871.709778,341.663208 877.077820,342.348999 886.001770,337.515839 
	C885.340515,336.733917 884.766296,335.917633 884.059753,335.239044 
	C856.886230,309.140991 828.811829,284.073517 799.167114,260.788330 
	C752.311707,223.984573 703.192505,190.558807 651.207642,161.397461 
	C617.921204,142.725220 583.986633,125.374817 549.010315,110.024994 
	C536.218445,104.411125 526.847839,111.008484 516.515625,115.941284 
	C517.575562,118.572983 519.307190,119.689117 520.876892,120.859749 
	C528.890137,126.835594 536.988647,132.686432 545.463013,138.012695 
	C574.424011,156.215088 605.398132,170.714386 636.033081,187.388672 
M512.055969,134.485931 
	C508.561768,131.652786 504.927521,128.971939 501.622192,125.933304 
	C499.391846,123.882889 497.333832,123.484482 494.448792,124.380356 
	C483.795624,127.688438 472.968048,130.313522 461.888947,131.793015 
	C459.747162,132.079041 457.609863,132.398788 454.487335,132.842773 
	C456.604553,134.166885 457.690643,134.918350 458.840515,135.554489 
	C478.514832,146.438690 498.220032,157.267197 517.872498,168.190659 
	C554.560242,188.582932 591.209412,209.044601 627.890991,229.448090 
	C681.747986,259.405182 735.580200,289.407349 789.508423,319.235809 
	C805.711060,328.197723 822.423462,336.087219 840.734680,339.913696 
	C842.089111,340.196747 843.489319,341.289124 845.214355,339.446075 
	C836.551880,331.615479 827.811340,324.005341 818.447266,317.148773 
	C793.014038,298.526123 766.146667,282.126648 739.148010,265.909760 
	C689.877380,236.315125 640.242432,207.385483 589.117371,181.067596 
	C562.592712,167.413376 536.460754,153.057663 512.055969,134.485931 
M795.925049,95.768501 
	C797.224426,102.290237 798.295959,108.867165 799.859924,115.324844 
	C811.104858,161.757553 829.052856,205.405502 853.765381,246.346634 
	C869.052551,271.672821 888.523682,293.968353 905.200684,319.442047 
	C902.622375,290.805023 895.835144,264.092255 886.684570,237.996399 
	C866.012390,179.042313 840.723450,121.971718 815.295044,64.971176 
	C809.566345,52.129799 809.384766,52.340786 795.350525,53.947174 
	C791.295959,54.411259 790.028503,55.802822 790.464661,59.987072 
	C791.688660,71.729980 793.304382,83.396217 795.925049,95.768501 
M846.430237,95.152855 
	C852.637390,109.696381 858.861938,124.232529 865.048096,138.784958 
	C877.550781,168.196655 889.912964,197.674072 900.307861,227.909134 
	C909.893555,255.790558 918.146545,284.015228 920.621216,313.631866 
	C920.925171,317.269623 920.404785,321.310516 922.491211,324.726318 
	C933.770874,322.161499 936.663208,318.671417 936.694824,307.936707 
	C936.739685,292.691376 932.581543,278.315094 927.230225,264.293304 
	C909.959961,219.041016 892.449158,173.880600 875.061768,128.672958 
	C865.859375,104.746674 856.743530,80.787079 847.509888,56.872925 
	C846.778687,54.979229 846.615845,52.012066 843.942932,51.963009 
	C838.877136,51.870026 833.800598,52.362289 827.558350,52.668900 
	C834.042908,67.233780 840.099854,80.838287 846.430237,95.152855 
M341.641846,431.122864 
	C335.968597,437.324188 329.529327,442.716583 322.170715,448.463104 
	C331.920776,450.475861 332.794159,459.638916 338.245056,465.106812 
	C339.807098,457.839874 339.772614,451.050049 339.911713,444.259369 
	C340.031036,438.434937 342.336700,435.772522 348.061066,434.802063 
	C350.079956,434.459808 351.648621,434.151337 351.634644,431.686218 
	C351.613556,427.971558 351.629150,424.256653 351.629150,419.527283 
	C347.940643,423.828186 345.033783,427.217621 341.641846,431.122864 
M253.451675,479.599243 
	C257.202332,483.008820 254.669724,487.846466 256.317535,492.347992 
	C258.169250,487.962708 259.638428,483.703461 264.891937,483.233398 
	C270.175720,482.760681 272.065948,486.885559 274.367249,490.832184 
	C276.417480,486.384430 276.017365,482.132294 276.601074,478.061859 
	C277.570282,471.303070 281.357635,468.548370 287.904175,470.118500 
	C288.335968,470.222076 288.835480,470.043335 289.289673,469.997345 
	C289.891327,468.605408 291.150146,467.534790 290.454651,465.525360 
	C277.752655,470.421570 264.640686,473.710144 250.700302,478.162781 
	C251.472168,478.487244 252.244034,478.811676 253.451675,479.599243 
M170.730087,483.782684 
	C176.133179,481.693237 179.440308,484.639801 182.381882,489.274445 
	C184.376068,485.070282 186.859711,481.969299 191.379837,480.445740 
	C183.076874,478.539886 175.406586,476.779266 167.536636,474.972809 
	C166.120621,478.936523 165.854111,482.514954 166.303680,486.595551 
	C167.901321,485.514801 168.983795,484.782562 170.730087,483.782684 
M313.848450,453.977173 
	C308.734100,456.705566 303.619751,459.433990 297.481903,462.708405 
	C305.175995,464.066467 305.558533,471.030823 309.791809,475.348816 
	C312.477875,468.310455 313.935242,461.733429 315.508759,455.194977 
	C315.670898,454.521362 315.250000,453.938354 313.848450,453.977173 
M412.392578,329.345490 
	C412.558533,329.932831 412.724487,330.520172 412.890442,331.107544 
	C413.308228,317.946167 412.738617,304.945709 408.989685,291.834869 
	C405.183655,294.086182 406.126740,296.794739 406.715454,299.318726 
	C408.979156,309.023987 410.851257,318.802002 412.392578,329.345490 
M379.229156,231.259659 
	C381.592438,235.473572 383.970612,239.679214 386.312958,243.904724 
	C387.553040,246.141800 389.034637,247.604523 392.134125,245.888672 
	C387.801270,237.171967 383.044006,228.939423 376.554169,220.894775 
	C376.060883,225.023590 377.079895,227.915970 379.229156,231.259659 
M226.846024,511.452240 
	C226.608765,511.342621 226.379074,511.193695 226.129929,511.145660 
	C226.047318,511.129761 225.880783,511.356567 225.809784,511.500580 
	C223.255569,516.683228 220.708084,521.869141 217.972214,527.436096 
	C222.850662,528.280457 227.133881,527.931519 232.332932,527.138977 
	C226.380386,522.950989 228.254654,516.988159 226.846024,511.452240 
M321.919128,495.066528 
	C321.773773,495.840607 321.424622,497.048065 322.836609,496.422180 
	C325.868103,495.078339 328.508057,493.074493 331.046112,490.938690 
	C332.077240,490.071014 332.456604,489.138885 331.859619,487.912140 
	C330.509613,485.137939 329.189941,482.340088 326.566589,479.486298 
	C324.226044,484.636871 323.317963,489.606049 321.919128,495.066528 
M199.944092,490.638763 
	C200.219025,491.198700 200.211716,492.969330 201.038437,491.894073 
	C203.371506,488.859497 205.944504,485.824402 206.879501,481.519714 
	C202.826065,481.255402 199.140228,481.015045 194.126450,480.688141 
	C198.069702,483.470245 199.877487,486.289337 199.944092,490.638763 
M200.997711,404.867310 
	C206.902191,400.556976 207.473862,393.187286 211.037521,387.499878 
	C207.221115,391.851349 203.777130,396.447052 200.397018,401.089264 
	C199.586502,402.202393 199.091125,403.467255 200.997711,404.867310 
M263.959473,518.920837 
	C264.816620,522.153381 266.573730,522.109863 271.420105,518.628784 
	C270.664917,516.229309 269.403503,514.317322 266.885101,513.559021 
	C264.929749,514.708557 264.622223,516.540527 263.959473,518.920837 
M291.636963,509.687653 
	C290.292908,509.263947 289.727692,507.375854 287.849762,507.662354 
	C286.871948,509.846405 285.424744,511.890625 286.429474,514.502258 
	C288.998047,514.672607 290.791840,513.335938 292.630096,512.353638 
	C294.595856,511.303162 293.003845,510.650452 291.636963,509.687653 
M146.529617,512.822632 
	C146.381790,511.769073 146.725342,510.426239 144.749283,510.211487 
	C143.335495,511.825317 142.049438,513.603210 141.688339,516.073975 
	C145.342224,518.855042 146.040924,516.407288 146.529617,512.822632 
M241.947083,524.677307 
	C243.363586,526.901001 245.306549,525.934448 246.390427,524.791138 
	C247.982941,523.111389 246.307770,521.685791 245.074677,519.993103 
	C243.960052,521.544739 243.034897,522.832642 241.947083,524.677307 
M200.229065,526.127747 
	C200.908539,529.411072 203.038651,527.380005 204.866974,527.770569 
	C204.627411,525.440491 204.005844,523.801636 202.788666,521.901978 
	C201.818253,523.419250 201.129456,524.496155 200.229065,526.127747 
M360.527954,200.764343 
	C358.677856,205.142960 362.486084,205.961853 363.969391,208.243378 
	C364.335968,208.018951 364.702545,207.794510 365.069122,207.570068 
	C363.690155,205.221054 362.311157,202.872040 360.527954,200.764343 
z"/>
<path fill="#000000" opacity="1.000000" stroke="none" 
	d="
M402.021606,585.036560 
	C407.734131,593.867249 413.257965,602.389099 418.787415,610.907288 
	C420.547791,613.619202 422.118988,616.423279 420.818390,619.770813 
	C419.722809,622.590637 417.558197,624.451904 414.600555,625.037964 
	C411.081390,625.735413 408.369537,624.037903 406.468689,621.278748 
	C401.934540,614.697021 397.431183,608.086792 393.153320,601.337280 
	C379.956787,580.516357 367.497528,559.268127 356.558044,537.157227 
	C355.819855,535.665222 355.006622,534.196777 354.424011,532.643921 
	C352.663330,527.951355 354.351593,523.489136 358.471222,521.688110 
	C362.422241,519.960815 366.549713,521.520020 368.855408,525.964539 
	C376.213776,540.148804 383.544159,554.347046 391.694031,568.099670 
	C395.003265,573.684021 398.450592,579.186523 402.021606,585.036560 
z"/>
<path fill="#000000" opacity="1.000000" stroke="none" 
	d="
M315.783875,605.333740 
	C318.615479,619.103333 321.722900,632.365479 325.614624,645.449402 
	C328.029572,653.568359 326.336304,658.057312 320.879730,659.543457 
	C315.747772,660.941223 312.277771,657.794312 310.016998,649.935364 
	C301.214966,619.337646 295.660248,588.123901 292.187134,556.511230 
	C291.567963,550.875366 294.733276,546.435547 299.682220,545.978760 
	C303.865143,545.592651 307.582916,549.229675 308.251190,554.644592 
	C310.327057,571.465332 311.993225,588.344360 315.783875,605.333740 
z"/>
<path fill="#000000" opacity="1.000000" stroke="none" 
	d="
M226.673096,599.069458 
	C226.329453,589.282288 225.975128,579.988159 224.867096,570.737366 
	C224.442642,567.193604 224.532211,563.753174 227.828033,561.259521 
	C232.658173,557.604980 238.632584,559.666992 240.343033,565.619507 
	C241.924957,571.124695 241.588654,576.849731 242.037445,582.444519 
	C243.941925,606.185791 243.227280,629.939575 241.191330,653.656067 
	C241.107040,654.638062 240.803604,655.608887 240.535446,656.566223 
	C239.126068,661.597412 235.839157,664.178894 231.749039,663.495178 
	C227.308060,662.752930 224.433411,658.529602 225.030899,653.348145 
	C227.093414,635.462463 226.878418,617.511597 226.673096,599.069458 
z"/>
<path fill="#000000" opacity="1.000000" stroke="none" 
	d="
M451.173309,501.841003 
	C440.902283,492.070343 430.854614,482.576508 420.908508,472.977448 
	C417.158447,469.358215 416.916107,464.896606 419.951172,461.340179 
	C422.875610,457.913391 427.576294,457.570618 431.496216,461.141632 
	C439.127380,468.093506 446.363007,475.478943 453.977783,482.449554 
	C464.415955,492.004761 475.067108,501.326965 485.593750,510.786072 
	C487.185455,512.216309 488.908356,513.619141 489.293488,515.953857 
	C489.880402,519.512085 489.248901,522.676575 486.012726,524.723999 
	C482.358490,527.036011 478.936646,525.967163 475.939514,523.392334 
	C467.728088,516.338013 459.598816,509.188080 451.173309,501.841003 
z"/>
<path fill="#000000" opacity="1.000000" stroke="none" 
	d="
M481.497742,322.672302 
	C476.521027,323.641693 471.975403,324.762054 467.362427,325.268005 
	C461.679871,325.891266 458.358826,323.515076 457.713745,319.025543 
	C456.998352,314.046692 459.372711,310.855072 465.019806,309.646423 
	C488.083099,304.710144 511.154633,299.811676 534.239197,294.975830 
	C540.215942,293.723816 543.887695,295.347015 545.517822,299.582947 
	C547.423462,304.534729 544.615906,308.945312 538.372314,310.319031 
	C521.507202,314.029816 504.614258,317.614044 487.733215,321.252472 
	C485.785675,321.672241 483.843597,322.117371 481.497742,322.672302 
z"/>
<path fill="#000000" opacity="1.000000" stroke="none" 
	d="
M485.702271,389.157104 
	C502.687653,392.807404 519.276917,396.312286 535.855835,399.865540 
	C541.669739,401.111603 544.964111,405.345093 543.858887,409.969604 
	C542.767700,414.535187 538.533875,416.716827 532.739075,415.504272 
	C509.964691,410.738861 487.197266,405.939819 464.437347,401.105865 
	C459.453217,400.047272 456.840790,395.977264 457.788208,391.068970 
	C458.595612,386.885773 462.459229,384.214630 467.275543,385.080231 
	C473.325653,386.167603 479.296844,387.693848 485.702271,389.157104 
z"/>
<path fill="#000000" opacity="1.000000" stroke="none" 
	d="
M141.051834,584.932434 
	C137.390900,594.798401 133.877457,604.304321 130.325821,613.795837 
	C129.208069,616.782898 128.002304,619.884521 124.643143,620.945129 
	C121.673592,621.882751 118.570160,621.671204 116.233391,619.336304 
	C113.971909,617.076599 113.149216,614.189392 114.289650,611.064819 
	C119.300461,597.335938 124.368057,583.627686 129.405563,569.908508 
	C131.524521,564.137756 133.446686,558.287415 135.774796,552.602783 
	C138.131195,546.849121 142.124466,544.704163 146.518860,546.327881 
	C151.269501,548.083252 152.942062,552.434448 150.831161,558.377197 
	C147.717438,567.143188 144.409698,575.840332 141.051834,584.932434 
z"/>
<path fill="#000000" opacity="1.000000" stroke="none" 
	d="
M455.317963,230.281921 
	C467.643860,222.903534 480.485199,217.487122 493.501526,212.464005 
	C499.029205,210.330826 503.231445,211.962173 504.948730,216.657654 
	C506.552094,221.041656 504.213776,225.644547 498.832855,227.537811 
	C490.191162,230.578400 482.007324,234.607834 473.778046,238.544724 
	C469.290009,240.691818 465.008057,243.268784 460.525299,245.427963 
	C455.158966,248.012756 450.835144,246.819061 448.647095,242.426178 
	C446.564850,238.245728 448.125549,234.495499 453.245209,231.407074 
	C453.813110,231.064499 454.413849,230.776321 455.317963,230.281921 
z"/>
<path fill="#000000" opacity="1.000000" stroke="none" 
	d="
M421.225830,193.244888 
	C415.811249,197.700119 410.783478,202.079010 405.486786,206.103989 
	C401.145233,209.403091 396.610474,209.025406 393.864014,205.644989 
	C390.732269,201.790329 391.093140,197.721619 395.589722,193.809250 
	C403.374451,187.035934 411.320251,180.437927 419.386871,174.002487 
	C423.567627,170.667130 428.116638,171.182541 430.934082,174.714523 
	C433.969147,178.519318 433.373474,182.879364 429.172852,186.618790 
	C426.686310,188.832260 424.059845,190.888550 421.225830,193.244888 
z"/>
</svg>