<svg version="1.1" id="Layer_1" xmlns="http://www.w3.org/2000/svg" xmlns:xlink="http://www.w3.org/1999/xlink" x="0px" y="0px"
	 width="100%" viewBox="0 0 976 944" enable-background="new 0 0 976 944" xml:space="preserve">
<path fill="#ff400c" opacity="1.000000" stroke="none" 
	d="
M878.893738,109.497116 
	C868.206116,125.863327 857.725586,141.903549 847.200317,157.914383 
	C845.241638,160.893906 843.446350,163.682022 845.063171,167.587402 
	C845.979248,169.800171 844.537842,172.141129 843.914551,174.365372 
	C836.135925,202.121155 840.095276,228.034134 855.963684,252.135361 
	C858.084778,255.356842 859.771057,257.072662 864.598938,256.045929 
	C872.579712,254.348679 880.807190,256.621399 888.847351,257.835388 
	C902.522766,259.900238 915.959778,263.049530 928.922058,267.997559 
	C938.680847,271.722717 940.438110,275.830963 936.179321,285.237488 
	C893.380005,379.769348 850.297791,474.172058 806.618896,568.301025 
	C767.846741,651.855957 728.959412,735.357483 690.095764,818.869934 
	C688.692688,821.884888 686.985596,824.757507 685.444763,827.709351 
	C679.227905,839.618713 668.941589,845.070312 655.985474,846.248596 
	C635.270569,848.132629 614.489746,849.043335 593.744507,850.455872 
	C559.868408,852.762512 525.951111,854.197144 492.054169,856.051941 
	C483.241547,856.534241 474.406921,856.732300 465.594208,856.970154 
	C431.625702,857.887085 397.667267,859.112000 363.678314,859.508240 
	C329.352600,859.908386 295.027069,860.507812 260.703522,860.182800 
	C224.551910,859.840454 188.401642,859.056702 152.260345,858.103333 
	C141.149673,857.810242 130.058121,856.666992 119.172607,853.861511 
	C97.556435,848.290527 82.710304,834.330078 71.875435,815.698303 
	C52.985176,783.214417 38.922417,748.836243 32.977646,711.499329 
	C27.158739,674.952942 31.757843,639.823181 48.166340,606.512146 
	C64.010696,574.346375 82.842361,543.835266 100.712074,512.797607 
	C144.278595,437.127716 189.414627,362.391022 235.549332,288.267242 
	C267.595367,236.779510 300.376587,185.749222 332.869812,134.540222 
	C335.187286,130.887894 337.821045,127.434967 340.335480,123.909134 
	C351.544769,108.191132 367.010162,100.973679 386.111084,100.744987 
	C408.102173,100.481689 430.095428,100.198143 452.079803,99.621056 
	C489.221985,98.646065 526.373352,98.246193 563.518311,97.512650 
	C598.498413,96.821869 633.476807,96.134735 668.459229,95.548058 
	C706.773254,94.905518 745.083862,94.073380 783.402039,93.583427 
	C810.051514,93.242668 836.700562,92.536461 863.335510,91.592064 
	C870.619385,91.333786 874.659912,95.631844 878.669373,100.238472 
	C880.890076,102.789856 880.809814,106.095078 878.893738,109.497116 
M725.487427,219.677032 
	C730.474487,219.513474 735.459778,219.480911 740.451904,219.243622 
	C755.068604,218.548828 769.690247,216.591873 784.335693,218.380615 
	C787.355164,218.749405 788.491211,217.319733 789.792786,215.224182 
	C810.716064,181.536911 832.078186,148.130661 853.993164,115.078598 
	C855.055298,113.476669 856.487793,111.989967 856.544922,109.411278 
	C854.128601,109.411278 851.815857,109.234688 849.537354,109.439148 
	C830.919556,111.109818 812.238159,110.222794 793.590149,110.812180 
	C753.795715,112.069923 713.974915,112.487358 674.165405,113.274666 
	C646.352783,113.824692 618.541565,114.449829 590.728638,114.982971 
	C549.419617,115.774811 508.110352,116.556831 466.799805,117.261734 
	C441.145813,117.699501 415.489441,118.226852 389.833679,118.254402 
	C373.782806,118.271645 361.397675,123.793404 352.399872,137.707062 
	C318.835022,189.609665 285.433685,241.615372 252.882874,294.158752 
	C199.625153,380.127167 147.556854,466.812012 97.255844,554.548462 
	C84.503624,576.791260 70.776962,598.521484 60.660229,622.190857 
	C57.168217,630.360901 54.255306,638.726685 52.903133,647.722168 
	C60.914928,638.379456 71.271759,633.397888 82.785912,630.490234 
	C90.736931,628.482361 98.915489,628.080322 107.041634,627.803284 
	C129.346024,627.042786 151.658432,626.458374 173.972107,626.041748 
	C217.792526,625.223633 261.599792,625.881287 305.393982,627.568787 
	C308.169067,627.675781 311.024017,628.210815 313.491394,627.177307 
	C315.956299,617.629517 316.616089,608.341187 313.666290,598.973450 
	C312.464172,595.155701 311.594055,591.712036 306.427826,591.773560 
	C304.621582,591.795105 302.758392,590.336609 300.986359,589.427124 
	C283.621094,580.514465 268.311951,568.808472 254.827301,554.770752 
	C242.162842,541.586914 231.432861,526.985718 224.263016,510.033051 
	C221.250931,502.911163 219.579330,495.374542 220.122620,487.636810 
	C221.715088,464.955933 239.613983,458.072998 257.218719,461.294373 
	C271.738708,463.951324 283.015717,472.382782 292.635651,483.253387 
	C293.872375,484.650848 294.568542,486.787537 297.463989,487.100647 
	C303.606873,458.775604 317.117615,434.347656 337.748169,413.808838 
	C331.184052,406.960205 328.525696,399.117889 326.545227,390.953766 
	C322.899536,375.924805 320.124817,360.725342 317.609253,345.474884 
	C316.103638,336.347260 315.860199,327.293213 318.828278,318.344330 
	C323.098267,305.470184 340.056610,294.112000 356.115906,305.525269 
	C363.074921,310.470978 367.157318,317.583282 369.105682,325.702789 
	C371.196045,334.414124 372.624207,343.284973 374.317535,352.090729 
	C375.801147,359.805695 377.251678,367.526978 378.826172,375.821655 
	C380.563690,374.616211 381.556488,374.029083 382.433685,373.302368 
	C387.834564,368.827881 392.768188,363.863220 397.489258,358.690643 
	C423.221344,330.497559 434.606262,297.336823 431.825775,259.290649 
	C431.705780,257.648712 431.787628,255.958115 430.276031,254.734512 
	C426.255768,251.480240 424.999268,246.729706 423.801422,242.063538 
	C421.540131,233.254913 421.090790,224.338440 422.732147,215.338196 
	C427.073029,191.535263 439.053528,173.315552 461.500366,163.067917 
	C469.586578,159.376343 476.805267,162.221161 480.793182,170.139526 
	C485.158630,178.807541 486.605804,188.206467 485.999847,197.785873 
	C485.108856,211.871216 480.865875,225.204178 475.807739,238.273911 
	C473.412476,244.463028 468.921997,246.800278 463.714020,244.928406 
	C458.896759,243.196976 457.123444,238.097687 459.316559,231.972183 
	C463.414581,220.526199 467.536316,209.080566 468.214600,196.786636 
	C468.512390,191.389099 468.102814,186.050735 465.960602,180.905426 
	C448.399780,188.865158 435.511719,215.700012 440.223328,233.449219 
	C440.540710,234.644836 440.847321,235.793320 442.013977,236.259842 
	C447.069397,238.281464 447.630432,242.788498 448.319519,247.292618 
	C450.076172,258.775146 450.935730,270.299866 449.726288,281.999847 
	C452.010651,281.924255 452.998077,280.400299 454.198578,279.377594 
	C464.927612,270.237793 477.337891,264.368073 490.757080,260.465027 
	C508.831757,255.207916 522.097900,265.078888 522.344849,283.843353 
	C522.567749,300.782654 514.856567,314.019165 502.580658,324.729187 
	C488.164795,337.306152 470.537201,342.030975 451.917969,343.216125 
	C445.553894,343.621246 438.574432,346.893646 432.913696,340.573120 
	C431.976135,341.713593 431.219574,342.384552 430.767365,343.220184 
	C417.958649,366.891052 397.688263,384.018219 378.245911,401.598969 
	C367.901917,410.952515 356.870331,419.600006 347.160065,429.671326 
	C329.815094,447.661194 319.011902,469.082733 314.305176,493.600494 
	C313.191193,499.403442 311.669464,505.173676 312.598022,511.836243 
	C316.405304,506.317017 319.657928,501.151886 323.353363,496.325806 
	C336.580444,479.051544 352.848602,465.586945 373.331726,457.729919 
	C382.548798,454.194366 391.683411,457.478882 395.012115,465.360687 
	C396.968384,469.992767 397.686737,474.869629 396.874054,480.012756 
	C394.530121,494.847137 387.402191,507.694611 379.985291,520.312378 
	C366.258850,543.664124 350.780609,565.685486 329.079498,582.560852 
	C328.242462,583.211731 327.602600,583.860291 327.968628,585.052185 
	C329.166443,588.952393 330.332123,592.862427 331.743500,597.542358 
	C334.017029,594.425598 335.648651,591.949829 337.518127,589.669067 
	C344.074585,581.670227 352.123596,575.588745 361.673065,571.616028 
	C368.838684,568.635010 375.849304,568.976196 381.747345,574.381958 
	C387.771088,579.902893 389.437622,587.064636 387.714630,594.943848 
	C386.197540,601.881714 382.700073,607.942017 378.857483,613.826477 
	C375.258179,619.338379 370.861603,624.222961 365.636993,629.953796 
	C370.280029,629.953796 373.772034,629.760498 377.237000,629.984985 
	C400.644440,631.501648 424.050995,633.038513 447.447845,634.708862 
	C461.379333,635.703430 475.290863,636.975464 489.214600,638.081543 
	C506.137207,639.425903 523.025635,640.698242 539.963562,637.739197 
	C556.182861,634.905579 569.592651,629.041748 576.589844,612.392029 
	C588.854492,583.208679 603.365845,555.047180 617.188721,526.577820 
	C620.614441,519.522156 620.560120,519.176208 612.971436,517.480225 
	C581.226257,510.385620 549.022766,506.575989 516.570007,505.487091 
	C495.117065,504.767303 473.630646,504.874084 452.151886,506.611816 
	C440.559631,507.549683 428.977386,504.626038 429.539032,485.985657 
	C429.850098,475.661957 429.658539,465.322296 429.626831,454.990051 
	C429.621826,453.352814 429.549957,451.617249 429.021912,450.096222 
	C425.681366,440.473389 428.932678,435.604156 439.069855,435.723969 
	C456.228699,435.926788 473.384125,436.410095 490.542786,436.637482 
	C523.196167,437.070221 555.860107,437.053101 588.501770,437.907104 
	C609.785400,438.463959 631.038208,440.358917 651.539612,446.759888 
	C655.754822,448.075958 657.704041,447.095093 659.696472,443.257111 
	C681.115356,401.999237 703.479736,361.255188 726.721436,320.994293 
	C730.697205,314.107178 734.676331,307.221985 738.473999,300.647308 
	C737.523804,298.563385 735.983948,298.160126 734.727112,297.401367 
	C724.659180,291.323395 713.384338,288.900360 701.992554,287.477753 
	C679.374939,284.653229 656.783142,287.367523 634.201599,288.733215 
	C614.349182,289.933838 594.596558,289.738312 575.200317,284.605988 
	C567.345825,282.527618 565.699219,280.308502 565.678589,272.336212 
	C565.637573,256.504120 565.617676,240.671982 565.596497,224.839874 
	C565.591858,221.348969 565.282776,217.817001 565.703125,214.375916 
	C566.499512,207.857346 573.481201,204.661880 578.794250,208.501328 
	C581.256592,210.280746 583.853638,211.018204 586.594666,211.428726 
	C609.632080,214.878891 632.816467,217.070053 656.045532,218.539795 
	C678.826660,219.981186 701.664795,219.955475 725.487427,219.677032 
M593.315552,617.719238 
	C588.088745,629.684692 581.508606,640.592285 569.432495,646.897034 
	C556.184021,653.813843 541.779297,656.415222 527.071594,657.234009 
	C509.069641,658.236267 491.089325,656.689697 473.214142,654.961365 
	C439.250977,651.677551 405.227722,649.309692 371.173889,647.482239 
	C342.907776,645.965332 314.598694,644.794373 286.297424,644.480469 
	C222.659485,643.774719 158.986145,642.570129 95.413826,646.504761 
	C72.363403,647.931335 60.085587,658.462524 60.483166,683.146667 
	C60.930428,710.915405 68.351578,737.328064 78.814659,762.901001 
	C85.717278,779.771851 94.514664,795.646912 105.008728,810.545471 
	C108.161156,815.020996 111.115524,820.597412 118.393829,816.824524 
	C119.275238,816.367615 120.739304,816.685608 121.816406,817.020447 
	C125.100883,818.041809 128.429947,817.695129 131.740753,817.536072 
	C150.861389,816.617737 169.975021,815.544128 189.099335,814.714661 
	C208.062134,813.892151 227.038437,813.382507 246.002335,812.582336 
	C282.763092,811.031433 319.518097,809.344666 356.277832,807.769470 
	C379.731232,806.764404 403.185120,805.753296 426.645386,804.932434 
	C462.763184,803.668762 498.857758,801.412415 535.018799,801.851257 
	C550.655579,802.041077 566.285950,802.725037 581.843018,804.539185 
	C590.922363,805.598022 600.023376,806.473145 609.098022,807.568604 
	C614.690735,808.243713 618.878296,806.410034 621.596741,801.395203 
	C622.549255,799.638000 623.625305,797.947937 624.585510,796.194702 
	C648.925171,751.754089 671.140442,706.254211 692.542053,660.341187 
	C694.792969,655.512207 695.255676,650.769470 694.468994,645.795654 
	C690.736877,622.199646 684.658997,599.242859 674.771973,577.437317 
	C668.022522,562.551819 660.858643,547.841125 649.324036,535.872803 
	C645.904663,532.324829 642.471313,528.673645 637.098267,526.950073 
	C621.851196,556.761475 607.717346,586.888367 593.315552,617.719238 
M781.288147,379.062134 
	C780.041321,374.750519 778.923828,370.396515 777.525024,366.134796 
	C771.981750,349.245178 767.735718,331.813538 757.343628,316.914764 
	C756.155518,315.211304 755.348511,313.003265 752.231934,312.690948 
	C747.399170,321.033325 742.454773,329.491913 737.582703,337.991974 
	C716.551331,374.684296 696.377441,411.846588 676.691467,449.275146 
	C673.707153,454.949188 673.814880,454.881317 679.514343,458.098206 
	C686.626587,462.112457 693.503967,466.500854 699.652527,471.931580 
	C716.167053,486.517853 726.982361,504.798737 734.562256,525.267517 
	C737.526550,533.272278 739.471008,541.597839 742.078125,549.777710 
	C743.850708,549.036743 744.181641,547.857422 744.667908,546.830811 
	C760.491821,513.424072 776.754272,480.235291 794.190674,447.635284 
	C795.889893,444.458313 795.995911,441.349457 795.332520,437.994781 
	C791.464600,418.435638 787.099915,398.995209 781.288147,379.062134 
M635.071655,490.621246 
	C638.513916,483.962097 641.957703,477.303741 645.397949,470.643524 
	C648.560059,464.521606 648.395874,464.306915 641.670532,462.383301 
	C622.596924,456.927734 602.900635,456.058777 583.340454,455.588684 
	C539.700195,454.539764 496.035767,454.515350 452.382874,453.945282 
	C448.370117,453.892883 447.146088,455.343506 447.240875,459.187195 
	C447.438019,467.181396 447.502960,475.192810 447.189514,483.180145 
	C447.014771,487.632629 448.525055,489.014832 452.925995,488.768707 
	C466.056549,488.034332 479.219116,487.001801 492.345062,487.268951 
	C510.134857,487.631012 527.941650,487.854156 545.709595,489.541626 
	C569.561890,491.806915 593.279358,494.813049 616.691406,499.926239 
	C629.046448,502.624573 629.009094,502.795532 635.071655,490.621246 
M613.386414,232.318649 
	C603.565796,231.113235 593.745178,229.907806 583.296082,228.625244 
	C583.296082,240.758987 583.483276,252.209930 583.193726,263.648804 
	C583.093323,267.615295 584.838623,268.979523 588.209656,269.532288 
	C601.073975,271.641663 614.046936,272.319061 627.015076,271.444397 
	C646.764160,270.112366 666.481201,268.390259 686.305847,268.644531 
	C706.702698,268.906128 726.330994,272.500458 744.532593,282.079163 
	C747.496582,283.638977 748.822449,283.103302 750.418823,280.409607 
	C758.481506,266.804718 766.705322,253.295395 774.843994,239.735336 
	C775.502197,238.638687 776.425903,237.556412 775.828308,235.540924 
	C772.560364,235.540924 769.128723,235.386749 765.715210,235.570892 
	C756.750366,236.054550 747.799561,237.022034 738.832031,237.184479 
	C722.527771,237.479782 706.215393,237.300171 689.906616,237.375671 
	C664.581421,237.492935 639.432068,235.015411 613.386414,232.318649 
M654.901428,491.365692 
	C652.371643,496.426819 650.016296,501.585938 647.247498,506.512726 
	C645.554382,509.525543 646.129456,511.155518 649.004089,512.902344 
	C659.151306,519.068604 667.067200,527.571533 673.472168,537.466614 
	C688.247375,560.292725 698.651489,585.027893 705.363770,611.345764 
	C706.403625,615.422852 707.445557,619.499329 708.796265,624.789062 
	C714.503784,612.400208 719.284729,601.070068 724.902588,590.171204 
	C728.509216,583.174072 729.424927,576.531677 727.793640,568.786377 
	C723.423218,548.035339 718.200867,527.674927 707.298828,509.195435 
	C698.388123,494.091370 686.522888,482.089081 671.111328,473.554230 
	C667.066711,471.314331 664.653748,471.374664 662.667297,475.999420 
	C660.504333,481.034882 657.744019,485.813751 654.901428,491.365692 
M826.272034,390.815704 
	C829.166016,386.072235 832.233765,381.913086 830.556763,375.321136 
	C824.945679,353.265137 820.247498,330.978760 814.997925,308.828430 
	C810.784119,291.048462 808.012817,272.903259 801.789734,255.626343 
	C800.170044,251.129517 798.265747,246.744553 794.309631,243.374496 
	C793.572266,244.076263 792.985901,244.438583 792.669739,244.963638 
	C783.048157,260.941925 773.483765,276.954834 763.819336,292.907043 
	C762.447693,295.171143 763.373596,296.520599 764.861877,298.110809 
	C772.466187,306.235809 778.114258,315.641022 782.317810,325.879852 
	C793.849182,353.967743 801.392700,383.260742 808.232788,412.754272 
	C808.634705,414.487335 808.873535,416.211151 810.206665,418.019135 
	C815.579285,408.908264 820.731628,400.171082 826.272034,390.815704 
M825.244995,224.973297 
	C823.255798,216.073837 822.308044,207.058472 822.225525,197.779541 
	C816.279663,206.496796 810.792358,215.347336 805.250183,224.163345 
	C804.067017,226.045334 804.340576,227.538589 805.907898,229.016953 
	C815.166504,237.749939 819.255615,249.247910 822.120361,261.090271 
	C829.107300,289.972961 835.591064,318.977142 842.356323,347.913971 
	C843.159668,351.350159 843.214294,355.090118 845.618652,358.306946 
	C846.372864,357.830170 847.096008,357.615936 847.418396,357.133759 
	C855.275391,345.380859 863.848389,334.023102 869.249756,320.835175 
	C872.024536,314.060486 874.075562,307.049408 871.608582,299.510834 
	C869.097473,291.837372 863.377075,286.724213 857.834717,281.469543 
	C841.585571,266.063782 830.437561,247.732224 825.244995,224.973297 
M300.371582,561.893127 
	C298.325928,554.356750 296.270691,546.833191 295.472046,539.017395 
	C294.730682,531.762451 294.928619,524.132568 292.634949,517.372864 
	C287.754578,502.989838 278.697266,491.270447 265.493835,483.298767 
	C259.301941,479.560394 252.682678,476.944427 245.096451,478.887604 
	C241.258804,479.870575 239.031708,482.090790 238.278961,485.922546 
	C236.751770,493.696564 239.017883,500.818634 242.510559,507.512512 
	C255.596771,532.592896 274.462067,552.393311 298.239288,567.582642 
	C299.368713,568.304138 300.456268,569.723267 302.172913,568.898621 
	C302.215698,568.502014 302.351654,568.155090 302.267303,567.874329 
	C301.741089,566.122375 301.165588,564.385132 300.371582,561.893127 
M356.256195,487.751862 
	C341.592712,499.139862 331.171326,513.697815 323.474915,530.506287 
	C318.691895,540.951965 317.768494,551.481750 320.385956,562.498047 
	C320.658875,563.646851 320.963776,564.767090 322.455078,565.238586 
	C322.914368,564.938232 323.533508,564.661255 323.989502,564.216797 
	C347.071594,541.722534 364.910248,515.644714 377.282715,485.876465 
	C378.586853,482.738770 379.728149,479.395905 378.996796,475.134552 
	C370.276428,477.292145 363.656677,482.511505 356.256195,487.751862 
M442.100525,326.594635 
	C445.738739,326.291931 449.387878,326.084564 453.013184,325.669250 
	C465.350586,324.255829 477.273895,321.440979 487.527069,313.990387 
	C497.035370,307.081055 503.808044,298.241364 504.611328,286.057343 
	C505.165466,277.652588 502.154907,275.244293 494.102661,277.765472 
	C474.683685,283.845642 459.245819,295.337494 448.390442,312.690460 
	C446.796539,315.238403 445.140686,317.532990 442.768127,319.530151 
	C440.895020,321.106842 437.774261,323.450317 442.100525,326.594635 
M362.910828,388.394012 
	C362.496582,385.941528 362.138397,383.478027 361.659119,381.038330 
	C358.304169,363.959839 356.069977,346.660339 351.765472,329.772797 
	C349.987793,322.798523 345.682831,318.344360 341.854218,318.782654 
	C337.316528,319.302155 333.877411,324.750946 334.368713,332.394165 
	C335.747162,353.838531 340.525299,374.684814 346.387146,395.291595 
	C347.040253,397.587402 347.974030,400.045898 351.110840,401.224426 
	C354.625397,396.833130 360.429260,394.642456 362.910828,388.394012 
M355.731140,596.231140 
	C349.983612,601.690002 345.548523,608.028015 342.934174,615.551941 
	C341.531860,619.587524 339.217102,622.573486 334.717346,623.266296 
	C331.916840,623.697571 331.398346,625.494141 331.703003,627.868469 
	C336.651672,629.065613 336.713043,629.155823 344.382599,623.938110 
	C355.767151,616.192993 364.328461,606.039612 369.757874,593.335205 
	C370.390717,591.854248 371.457458,590.052124 369.808228,588.765320 
	C368.320404,587.604553 366.565308,588.518250 365.184906,589.443115 
	C362.158295,591.470764 359.226227,593.639526 355.731140,596.231140 
M768.791748,538.474060 
	C770.295959,540.119385 771.002930,540.285156 771.742737,538.604919 
	C773.142944,535.424377 774.764648,532.208984 773.648804,528.229370 
	C772.100464,531.444824 770.552063,534.660217 768.791748,538.474060 
M263.723297,829.350525 
	C261.734314,829.350525 259.745300,829.350525 257.756317,829.350525 
	C257.789001,829.812134 257.821686,830.273682 257.854370,830.735291 
	C262.891327,830.322754 267.988037,831.298462 272.974304,829.344727 
	C270.187592,829.344727 267.400879,829.344727 263.723297,829.350525 
M505.074951,837.000366 
	C507.800934,836.846558 510.526917,836.692688 513.252930,836.538818 
	C508.604797,834.362671 504.392487,836.642517 499.116913,836.966125 
	C501.477814,838.024170 502.876343,837.317200 505.074951,837.000366 
M646.222473,800.976685 
	C647.077087,799.507751 648.249329,797.323059 645.649414,797.214294 
	C643.264343,797.114563 642.771912,799.793701 642.585938,802.021729 
	C644.025513,802.916321 644.948547,802.329773 646.222473,800.976685 
z"/>
<path fill="#ff400c" opacity="1.000000" stroke="none" 
	d="
M380.185059,128.322998 
	C394.354431,116.238747 411.426636,121.872383 414.751953,139.714905 
	C415.706268,144.835358 417.953003,149.966080 416.787262,155.366745 
	C414.337402,166.716522 406.863251,173.113708 395.911530,175.640869 
	C384.859222,178.191269 375.955139,174.316818 369.056793,165.627853 
	C366.032227,161.818146 364.058380,157.533890 363.459717,152.514160 
	C362.323486,142.987335 367.999573,138.220764 377.218964,141.679398 
	C375.856079,136.762253 376.776337,132.425369 380.185059,128.322998 
z"/>
<path fill="#ff400c" opacity="1.000000" stroke="none" 
	d="
M96.419098,596.568848 
	C99.015228,589.660217 98.355476,582.407471 100.389793,575.855408 
	C104.505653,562.599121 124.196938,558.285522 135.512405,567.747864 
	C143.452011,574.387207 145.780182,582.112305 142.745178,591.747253 
	C139.967590,600.565063 131.280777,607.743286 122.186966,608.117004 
	C117.592949,608.305725 113.002815,609.726501 108.340637,608.288574 
	C102.450470,606.472046 97.689926,603.607727 96.419098,596.568848 
z"/>
<path fill="#ff400c" opacity="1.000000" stroke="none" 
	d="
M523.028748,602.742432 
	C521.983276,600.630005 520.720459,598.882690 520.442383,596.990601 
	C519.868774,593.088257 518.176880,590.917603 514.401367,589.062683 
	C508.394104,586.111328 509.474701,577.281921 516.072266,573.810547 
	C524.855347,569.189209 534.127563,567.662781 544.070679,569.460327 
	C558.886902,572.138855 567.238464,589.811218 559.593201,602.915405 
	C552.180908,615.620178 535.104004,617.073242 525.382690,605.815125 
	C524.622803,604.935120 523.963318,603.968445 523.028748,602.742432 
z"/>
<path fill="#ff400c" opacity="1.000000" stroke="none" 
	d="
M784.178467,131.164322 
	C794.813354,124.169647 805.567627,124.542618 814.174316,131.933014 
	C818.895813,135.987305 819.486084,140.421631 815.597229,145.397171 
	C812.248962,149.680954 809.422302,154.443008 804.485352,157.342773 
	C800.444336,159.716354 796.195801,160.765457 791.617615,160.201248 
	C788.613892,159.831055 785.770508,158.795166 783.905457,156.149765 
	C778.996277,149.186737 779.014832,138.384750 784.178467,131.164322 
z"/>
</svg>