<svg version="1.1" id="Layer_1" xmlns="http://www.w3.org/2000/svg" xmlns:xlink="http://www.w3.org/1999/xlink" x="0px" y="0px"
	 width="100%" viewBox="0 0 1024 896" enable-background="new 0 0 1024 896" xml:space="preserve">

<path fill="#3356f4" opacity="1.000000" stroke="none" 
	d="
M435.001099,790.280151 
	C387.521759,790.989990 340.541962,791.668396 293.563141,792.410767 
	C259.078918,792.955750 224.597610,793.725403 190.111862,794.118164 
	C172.113205,794.323120 154.223801,793.054260 136.496262,789.396362 
	C108.163055,783.550110 85.912041,769.305542 71.902084,743.570862 
	C60.911320,723.382080 50.242188,703.023865 38.958694,682.987427 
	C24.139050,656.671692 29.982279,634.607422 50.035294,613.504150 
	C62.620850,600.259460 77.984406,590.365173 92.377419,579.313843 
	C135.991516,545.825928 179.624908,512.363098 223.307007,478.963989 
	C225.777252,477.075256 226.444046,475.439575 225.498474,472.307800 
	C218.004150,447.486237 220.263016,423.721954 233.418442,401.101898 
	C242.554581,385.392792 254.160187,371.267029 262.568329,355.099915 
	C267.730194,345.174713 272.263885,335.026459 275.364960,324.234802 
	C277.830933,315.653198 276.577393,307.876343 271.772156,300.408142 
	C266.064148,291.536835 261.375214,282.203735 259.637543,271.608521 
	C257.168304,256.552612 258.850586,241.776337 262.318848,227.094650 
	C266.718475,208.470322 273.347321,190.435043 276.964172,171.602661 
	C280.039368,155.590363 280.462708,139.838120 272.675385,124.819672 
	C270.885284,121.367325 271.610931,118.304375 274.604126,115.914825 
	C277.586670,113.533768 280.731750,113.650581 283.827240,115.816307 
	C284.235779,116.102135 284.647400,116.399086 284.997375,116.750824 
	C301.213470,133.049255 318.024567,148.758911 333.492615,165.797714 
	C340.910309,173.968674 342.741547,184.001816 343.102966,194.512268 
	C343.257538,199.007446 343.126862,203.513367 343.320404,208.006027 
	C343.538513,213.068451 345.812836,216.926743 350.568817,219.063629 
	C352.844208,220.085968 355.134308,221.083450 357.457489,221.990219 
	C375.721832,229.118896 389.013672,241.478195 397.024689,259.442963 
	C397.678986,260.910217 397.932312,262.667542 399.658691,263.723083 
	C402.598358,260.562134 405.357697,257.232452 408.490479,254.301987 
	C415.041565,248.173935 422.776642,243.874771 431.298645,241.235886 
	C443.585815,237.431107 450.947205,229.518433 455.208984,217.274872 
	C463.527466,193.376801 472.132599,169.532257 483.494171,146.839066 
	C494.649689,124.557442 508.449951,104.311668 528.786621,89.229546 
	C530.258301,88.138077 531.745850,87.062889 533.276123,86.056160 
	C539.179443,82.172478 543.009644,82.918350 546.464172,88.998703 
	C552.436218,99.510262 556.480469,110.733246 558.349976,122.720093 
	C559.479736,129.963470 560.300537,137.212799 560.350525,144.563980 
	C560.387878,150.063126 562.502319,151.660828 567.998596,150.705215 
	C572.333740,149.951492 576.188904,147.974380 579.843018,145.584412 
	C590.859802,138.378998 601.873474,131.168793 612.898499,123.976074 
	C617.384338,121.049507 621.976624,118.276787 627.458862,117.752724 
	C639.667236,116.585709 648.616455,124.984016 650.269287,139.029938 
	C650.911926,144.491791 651.266479,149.959488 651.266052,155.470108 
	C651.264893,169.631653 651.105103,183.797958 651.956970,197.947968 
	C652.096680,200.268448 652.196655,202.636673 651.296875,204.864883 
	C649.993774,208.091934 647.604431,210.098785 644.105530,210.148651 
	C640.412476,210.201294 638.308044,207.781693 637.394043,204.491333 
	C636.870300,202.606094 636.865356,200.546402 636.827148,198.561386 
	C636.484192,180.736893 636.226135,162.910690 635.846069,145.087036 
	C635.750488,140.604614 636.085510,135.235596 631.557861,133.013870 
	C626.919495,130.737823 623.250183,135.038635 619.529663,137.338409 
	C605.377441,146.086182 592.205505,156.456345 576.881409,163.256149 
	C572.611450,165.150848 568.109680,166.618912 563.327759,165.936127 
	C551.835144,164.295166 545.708252,157.348114 545.700012,145.473282 
	C545.691345,133.022018 543.818359,120.941750 539.637634,109.225639 
	C538.865234,107.061073 538.264587,104.757835 536.024597,102.734299 
	C530.823425,106.181953 526.310425,110.445694 522.107361,115.127151 
	C508.120941,130.705338 498.471375,148.913254 490.035645,167.853088 
	C481.761353,186.430466 475.119385,205.645630 468.216492,224.747177 
	C463.066895,238.997070 453.913788,248.856583 439.513367,253.898697 
	C428.861023,257.628479 419.023254,262.599243 412.205475,272.254883 
	C403.957123,283.936615 401.326416,296.704468 403.775177,310.659851 
	C403.918793,311.478302 404.150726,312.286224 404.232178,313.109833 
	C404.674042,317.577393 402.767365,320.676758 398.410217,321.696594 
	C394.040253,322.719391 391.315948,320.178070 390.089996,316.335236 
	C387.244507,307.415863 387.113525,298.296661 389.143677,289.197937 
	C390.135162,284.754486 392.208984,280.474640 387.517822,276.633698 
	C386.337738,275.667480 386.358398,273.249908 385.798706,271.508453 
	C380.551666,255.183182 370.167297,243.508789 354.331116,236.776169 
	C352.338104,235.928864 350.381805,234.973618 348.339935,234.266296 
	C334.588562,229.502609 328.455719,219.411041 328.030365,205.328400 
	C327.874390,200.165039 327.732147,194.997177 327.776642,189.833023 
	C327.817169,185.130417 326.463501,180.906586 323.618286,177.268265 
	C315.091309,166.364471 304.327179,157.669464 294.190063,146.912354 
	C294.372040,175.451584 284.268311,200.721878 277.776093,226.761688 
	C275.195770,237.111221 273.150909,247.519485 273.205994,258.291321 
	C273.263947,269.619751 276.036407,280.090118 282.453064,289.390472 
	C292.239777,303.575317 293.430603,318.547272 287.822235,334.573364 
	C279.976288,356.993591 267.615906,376.877472 254.097397,396.174744 
	C246.020645,407.704071 238.962936,419.789215 236.920776,434.041809 
	C235.591507,443.318970 235.551636,452.614838 238.046753,461.769989 
	C238.390137,463.029999 238.471909,464.442841 240.583389,465.515381 
	C249.240189,458.887878 258.200470,452.064392 267.122528,445.191376 
	C316.757751,406.955200 366.473663,368.825562 418.215576,333.441833 
	C438.838501,319.338837 460.594849,307.550720 485.379395,302.466156 
	C489.150726,301.692474 489.878571,299.112640 490.569519,296.116547 
	C494.524719,278.966156 500.201874,262.494263 510.096252,247.752640 
	C515.237976,240.091919 521.057251,233.044891 529.229065,228.344223 
	C538.909241,222.775894 548.737671,221.426041 558.372192,228.146561 
	C567.082703,234.222549 568.571655,243.776093 569.209656,253.372879 
	C569.883240,263.504730 570.017151,273.671906 570.430420,283.821838 
	C570.659912,289.458405 571.458801,290.077911 577.046509,289.651855 
	C582.200256,289.258911 586.201233,287.487061 589.818909,283.253876 
	C604.251648,266.365784 619.464294,250.234024 639.747803,240.054367 
	C647.541382,236.143021 655.715210,233.294083 664.363037,232.104568 
	C671.221191,231.161194 677.416443,232.859390 681.705261,238.629486 
	C685.992371,244.397263 684.337952,250.292511 681.206787,255.995102 
	C676.805725,264.010315 671.154053,271.199493 665.368042,279.011627 
	C669.487427,280.374115 672.870422,278.879456 676.169250,278.599701 
	C700.705322,276.519165 725.217163,274.153870 749.742371,271.942352 
	C758.855652,271.120514 767.981262,270.425781 777.108521,269.775818 
	C779.311829,269.618927 781.410706,269.476044 783.168030,267.935425 
	C791.776428,260.388824 801.914368,255.277969 811.917847,249.962799 
	C814.453247,248.615662 816.720276,246.967667 818.617615,244.820160 
	C823.228760,239.601105 822.975830,234.897552 817.467224,230.820770 
	C799.640198,217.627411 796.200806,199.084381 798.277954,178.724884 
	C799.945251,162.383270 806.612671,147.239731 810.543762,131.429626 
	C815.887207,109.939407 818.236572,88.212997 815.625305,66.104630 
	C815.550903,65.474609 815.263306,64.869766 814.984375,63.955833 
	C811.337097,64.089828 809.345642,66.700935 807.227905,68.842773 
	C796.377197,79.816780 789.103577,93.108070 783.329285,107.204720 
	C776.072327,124.920944 769.504578,142.920334 762.192810,160.612961 
	C756.380188,174.678009 748.867737,187.839844 738.830994,199.428360 
	C735.867737,202.849792 732.714417,206.020462 728.750366,208.296997 
	C718.460754,214.206329 708.047424,208.582413 707.610840,196.661041 
	C707.231628,186.306412 709.240295,176.104218 710.237000,165.842773 
	C711.506836,152.769882 713.152344,139.733582 714.604004,126.677979 
	C714.688599,125.917763 714.913025,125.013039 713.716248,124.230621 
	C709.863953,128.319107 707.178772,133.240128 704.448120,138.104950 
	C702.165710,142.171204 700.230835,146.436752 697.863342,150.449661 
	C695.722107,154.079208 692.389099,155.266235 688.424255,153.589478 
	C684.693970,152.011871 683.181946,148.030884 684.938721,143.960297 
	C693.040039,125.188309 704.824280,108.977997 719.520752,94.837791 
	C721.938599,92.511475 724.793457,91.978439 727.795532,93.504097 
	C731.103821,95.185432 732.607727,97.971230 732.189819,101.724731 
	C730.680969,115.279472 729.190674,128.836288 727.672302,142.389969 
	C725.913757,158.088196 724.122498,173.782791 722.380798,189.482880 
	C722.236450,190.783905 722.361633,192.114838 722.361633,194.058945 
	C725.473511,192.694168 727.065186,190.328979 728.795654,188.279175 
	C740.808777,174.048477 748.102783,157.269760 754.733215,140.115784 
	C763.010742,118.700722 769.797607,96.628304 782.262573,77.036606 
	C788.664001,66.975243 796.219604,57.970070 805.769897,50.702679 
	C816.978577,42.173412 826.987732,45.747490 829.511841,59.551521 
	C832.443665,75.585419 831.501526,91.694565 829.911743,107.815643 
	C828.017517,127.023445 821.911316,145.166199 816.490295,163.508911 
	C812.587952,176.712799 809.948547,190.055359 814.855103,203.681229 
	C816.818787,209.134445 819.429382,214.398209 824.386597,217.402878 
	C842.021973,228.091949 840.104553,248.384338 822.445435,260.820068 
	C819.661682,262.780457 816.651245,264.418945 812.926086,266.710388 
	C823.262146,267.335632 832.476257,265.866882 841.724060,265.421021 
	C854.524719,264.803894 867.301453,263.367157 880.100830,263.192566 
	C885.749268,263.115540 890.511841,267.414642 895.042236,270.546021 
	C898.222961,272.744507 897.145752,277.820923 893.926758,280.643372 
	C892.322021,282.050385 890.588989,283.311096 888.943909,284.614288 
	C894.123901,292.669891 893.656799,294.910767 886.096375,300.199646 
	C880.516357,304.103180 880.736145,309.771576 881.783447,315.516022 
	C882.903992,321.661987 886.210999,326.988647 888.693237,332.610443 
	C891.369934,338.672668 893.001160,344.912964 892.304382,351.527649 
	C891.827148,356.058289 893.799683,358.042969 897.950500,359.372345 
	C909.494385,363.069550 912.233337,367.230621 911.562927,379.160339 
	C911.448853,381.191467 912.011230,382.325775 914.020874,382.762543 
	C916.781433,383.362457 919.556396,383.932983 922.267456,384.715881 
	C928.730957,386.582367 934.153320,390.067810 937.690796,395.885101 
	C939.499207,398.858887 941.876648,400.215363 945.207336,400.940826 
	C952.526123,402.535004 959.746948,404.540863 966.663818,407.532837 
	C975.445312,411.331390 976.668518,415.946381 970.477173,423.085327 
	C958.798218,436.552002 946.977417,449.895966 935.334839,463.393860 
	C903.879883,499.861237 873.659424,537.333008 844.118286,575.364624 
	C807.712463,622.233948 774.120178,671.129639 739.686035,719.424500 
	C726.929382,737.316101 713.406372,754.655640 696.295471,768.864624 
	C682.455872,780.357178 666.351807,785.282532 648.856628,786.264343 
	C618.080444,787.991516 587.250854,787.760193 556.444885,788.414062 
	C526.786255,789.043579 497.125916,788.953186 467.473663,789.524536 
	C456.820129,789.729797 446.162781,790.169800 435.001099,790.280151 
M456.462738,580.716309 
	C475.748260,579.675415 495.062439,578.992004 514.307861,577.450500 
	C524.712402,576.617004 535.166687,575.487488 545.376038,572.905518 
	C563.338501,568.362793 576.487000,556.884888 588.477905,543.561951 
	C628.733582,498.834381 670.640808,455.731659 714.546875,414.552856 
	C755.761414,375.898468 798.015076,338.461182 842.045715,303.041290 
	C851.967957,295.059418 861.918884,287.113220 872.341248,278.762329 
	C871.081726,278.585083 870.610901,278.436768 870.151306,278.465851 
	C843.907166,280.126190 817.664307,281.805511 791.420410,283.468689 
	C788.763000,283.637054 786.705444,284.821747 784.952576,286.789246 
	C774.394592,298.639618 767.890564,312.083282 768.247070,328.338196 
	C768.382080,334.491638 765.583679,338.122162 760.935364,338.275269 
	C756.357300,338.426117 753.893738,334.862701 753.608887,328.371918 
	C753.036804,315.332886 756.359924,303.325348 762.732422,292.056061 
	C763.835876,290.104614 764.904663,288.133484 766.181030,285.824982 
	C761.666443,286.063080 757.848328,286.142151 754.053955,286.483978 
	C725.386292,289.066650 696.733582,291.821167 668.054749,294.270294 
	C652.846619,295.568970 651.370911,296.406250 645.679016,310.679504 
	C645.494202,311.143036 645.342651,311.619751 645.173279,312.089508 
	C638.419128,330.821930 642.014587,344.980438 656.825623,358.040344 
	C659.916321,360.765564 660.252136,364.226624 658.402527,367.540161 
	C656.570801,370.821381 653.301941,371.706024 649.744568,370.434387 
	C645.907104,369.062592 642.783325,366.543365 639.983032,363.641785 
	C627.575134,350.785065 626.109985,335.067932 628.373840,318.465027 
	C629.292419,311.728149 632.235352,305.495758 634.098877,299.032959 
	C631.899048,297.673309 629.843140,298.222076 627.949890,298.416321 
	C618.191528,299.417511 608.468628,300.804230 598.696716,301.615326 
	C593.867981,302.016144 590.796326,304.503113 588.028137,308.009369 
	C585.133423,311.675873 582.062073,315.137573 577.772034,317.355377 
	C569.628479,321.565399 562.026184,319.280884 558.406311,310.913879 
	C557.001160,307.666077 555.184387,306.697845 551.908997,307.156616 
	C536.592102,309.302063 521.260620,311.343079 505.938904,313.454865 
	C503.220276,313.829590 501.534119,315.069153 501.104340,318.181274 
	C500.013367,326.081879 498.624359,333.943115 497.260529,341.803802 
	C494.902222,355.396576 492.948944,369.079498 489.237122,382.395264 
	C485.932709,394.249664 477.815155,398.656525 465.940918,395.303711 
	C461.581573,394.072845 457.545990,392.100891 453.736755,389.663361 
	C448.107635,386.061279 443.024200,381.758636 437.894287,377.496826 
	C430.456360,371.317535 422.450439,366.345215 412.163757,367.239441 
	C406.747284,367.710327 403.523254,370.718018 403.175781,376.092804 
	C402.724030,383.081604 402.986694,390.077515 403.773285,397.046051 
	C406.158173,418.174652 411.492310,438.547913 419.322144,458.299469 
	C421.177094,462.978699 419.589508,466.857971 415.418121,468.636444 
	C411.599213,470.264709 407.821655,468.549500 405.895416,463.916931 
	C401.864807,454.223450 398.294769,444.351959 395.755890,434.151886 
	C390.850616,414.444244 387.497772,394.514069 387.757019,373.620758 
	C386.441925,374.420044 385.440643,374.942261 384.531677,375.593353 
	C338.068695,408.875671 292.964508,443.958893 247.656998,478.774414 
	C245.101013,480.738464 245.469284,482.296600 246.801468,484.617432 
	C255.280594,499.389191 267.018829,510.499237 282.802490,517.200378 
	C288.112152,519.454651 290.158691,523.220947 288.511017,527.215088 
	C286.707428,531.587158 282.684448,532.853210 277.210968,530.708008 
	C263.053986,525.159607 251.476379,516.130310 242.110382,504.263458 
	C238.745972,500.000763 235.824692,495.388306 232.530457,490.692047 
	C230.688599,492.032013 229.058899,493.162323 227.487793,494.368896 
	C198.553925,516.588135 169.573395,538.747070 140.715836,561.065002 
	C118.051041,578.593628 94.816338,595.386292 72.711090,613.635742 
	C69.617813,616.189514 66.217178,618.525574 64.132805,622.176453 
	C65.451752,623.024658 66.370293,622.554199 67.291183,622.186646 
	C115.035767,603.129456 165.110123,594.321350 215.881424,588.931763 
	C249.995590,585.310364 284.284637,583.786194 318.572479,583.190735 
	C364.207184,582.398071 409.858673,582.575562 456.462738,580.716309 
M603.819824,673.449341 
	C597.539978,676.610413 590.957397,678.933289 584.087219,680.395752 
	C559.482361,685.633667 534.438232,687.899597 509.558838,691.250061 
	C474.599152,695.957947 439.473938,699.177673 404.354706,702.448608 
	C364.408508,706.169067 324.382538,708.895813 284.334534,710.935547 
	C242.414703,713.070618 200.439499,714.371033 158.444366,714.317688 
	C144.445374,714.299866 130.446304,714.301575 116.447441,714.349915 
	C114.755005,714.355774 112.923073,713.958923 110.983276,715.184082 
	C115.507942,719.690918 120.190887,723.329651 125.297844,726.508179 
	C141.463730,736.569458 159.594162,739.150513 177.996567,739.546753 
	C210.146225,740.239197 242.307297,739.597412 274.455139,738.705505 
	C293.600830,738.174316 312.742096,737.378357 331.891174,737.096436 
	C374.035339,736.475769 416.122375,734.318237 458.230774,732.736511 
	C476.037140,732.067688 493.848724,731.463013 511.641113,730.514221 
	C539.233948,729.042725 566.809570,727.252136 594.398071,725.695862 
	C608.092163,724.923462 620.453613,722.441956 631.041870,711.836914 
	C668.476562,674.342896 706.613342,637.548950 744.537903,600.544922 
	C785.923645,560.163757 827.376770,519.851746 868.784912,479.493561 
	C884.894043,463.792908 901.255066,448.333893 916.904114,432.185944 
	C923.318481,425.567078 930.628906,418.925110 925.310120,407.000336 
	C923.149719,402.156494 921.039490,399.729034 916.657654,398.444366 
	C913.477539,397.512054 909.680054,397.725159 907.067322,396.027649 
	C902.338257,392.955139 899.259766,394.366699 896.096191,398.002838 
	C894.789246,399.505035 893.212036,400.770081 891.779297,402.165070 
	C840.798523,451.803009 789.868225,501.492981 738.824341,551.065979 
	C706.071716,582.874695 673.210571,614.572327 640.274597,646.191162 
	C629.449707,656.583130 618.206848,666.530945 603.819824,673.449341 
M785.954590,428.454865 
	C807.619080,406.513062 828.479370,383.829163 848.986145,360.802612 
	C856.791199,352.038513 863.412415,342.101807 873.552612,334.723541 
	C868.754944,324.752228 864.503479,314.292542 867.671631,301.679199 
	C864.991638,303.704681 863.125061,305.044159 861.334778,306.478943 
	C816.851440,342.131439 773.829041,379.469879 732.156494,418.369202 
	C684.739868,462.630402 639.432129,508.954102 596.132202,557.246582 
	C580.989136,574.135681 562.951050,585.892395 540.008179,589.122253 
	C523.020691,591.513733 505.926849,592.851624 488.843140,594.085571 
	C459.099030,596.234131 429.264923,596.519226 399.461914,597.024414 
	C364.313904,597.620300 329.164978,597.937500 294.022308,598.999878 
	C261.877899,599.971558 229.854034,602.189758 197.951355,606.201965 
	C161.371597,610.802490 125.367393,618.014893 90.365334,629.820435 
	C78.241554,633.909668 78.217598,633.838623 80.453926,646.460938 
	C81.649834,653.210876 81.649239,653.200623 88.342651,652.817139 
	C90.836967,652.674255 93.338974,652.650696 95.830284,652.472229 
	C117.742577,650.903259 139.651291,649.283875 161.565048,647.735901 
	C177.340500,646.621399 193.130264,645.701477 208.899017,644.502441 
	C237.105042,642.357605 265.297363,640.033508 293.500458,637.849060 
	C316.899719,636.036682 340.320221,634.483765 363.705902,632.514099 
	C392.050568,630.126770 420.360321,627.327209 448.700134,624.879395 
	C482.850983,621.929565 517.004517,619.032104 551.132568,615.808655 
	C567.519409,614.260864 582.205139,609.481323 595.260864,599.195129 
	C662.231628,546.430908 725.815002,489.899780 785.954590,428.454865 
M773.804565,496.303772 
	C814.918091,456.261627 856.031616,416.219452 898.266663,375.085022 
	C885.439575,371.601654 875.987915,366.380310 877.755432,351.012146 
	C875.154968,353.684601 873.693726,355.037231 872.401978,356.535919 
	C849.117004,383.551514 825.006165,409.815948 800.145325,435.380371 
	C740.239563,496.981415 676.216492,554.025024 609.000854,607.516174 
	C597.445374,616.712219 585.316650,624.628235 570.447388,627.703552 
	C551.299866,631.663818 531.783630,631.963318 512.465637,634.184082 
	C499.081787,635.722656 485.590393,636.302368 472.162781,637.488708 
	C447.468445,639.670471 422.799835,642.155090 398.093903,644.190857 
	C376.036530,646.008362 354.014496,648.199097 331.917725,649.636902 
	C305.192993,651.375916 278.532593,654.084045 251.831085,656.205627 
	C232.418701,657.748047 212.973557,658.879639 193.562927,660.442017 
	C159.886475,663.152527 126.187187,665.501404 92.455589,667.394287 
	C90.133705,667.524658 87.797119,667.532166 85.813423,668.946106 
	C86.063652,677.218811 94.459045,696.200684 100.269051,701.398926 
	C103.093277,699.444641 106.443924,699.685120 109.771935,699.664673 
	C135.094559,699.508850 160.413742,699.673401 185.741104,699.154785 
	C217.885269,698.496460 250.001846,697.378723 282.113831,695.898865 
	C313.216705,694.465454 344.265717,692.290405 375.305145,689.862915 
	C407.325043,687.358826 439.294189,684.400208 471.209351,680.802429 
	C501.122314,677.430359 530.993591,673.788086 560.839844,669.830811 
	C587.348083,666.316162 609.399780,655.705200 628.535522,636.883911 
	C676.407043,589.799011 724.991455,543.438965 773.804565,496.303772 
M448.619904,332.181915 
	C438.403198,338.158356 428.233246,344.203308 418.164368,352.170227 
	C431.341888,354.044159 440.823090,360.705383 449.846924,368.210205 
	C455.229858,372.687012 460.565308,377.246063 467.182587,379.844940 
	C473.551727,382.346466 474.057007,382.078583 475.690460,375.555603 
	C479.772736,359.253204 482.111420,342.629395 484.618683,326.042389 
	C484.972656,323.700714 486.597321,321.308716 484.641205,318.354523 
	C472.048828,320.494873 460.460876,325.635040 448.619904,332.181915 
M554.198914,250.382370 
	C553.939392,249.076126 553.752808,247.750275 553.408142,246.466888 
	C551.447388,239.165527 546.929077,236.852753 539.811462,239.572433 
	C536.010254,241.024933 532.852356,243.476700 530.082703,246.416351 
	C518.464783,258.747406 511.944580,273.764893 507.436981,289.797180 
	C506.698547,292.423676 505.528534,295.072571 506.016479,298.360504 
	C521.692200,296.370148 537.153625,294.428894 552.607056,292.426697 
	C555.738892,292.020935 555.876404,289.640411 555.777344,287.156891 
	C555.299744,275.183563 554.847107,263.209198 554.198914,250.382370 
M633.776062,283.031281 
	C638.186096,282.134247 643.465332,283.930969 646.741882,279.473572 
	C653.450317,270.347504 659.975342,261.085999 666.517334,251.838867 
	C667.342529,250.672424 668.411072,249.442139 667.848999,247.765137 
	C652.762024,244.966507 621.574158,266.720093 608.253113,286.006409 
	C616.771118,285.039032 624.834045,284.123352 633.776062,283.031281 
M60.822880,642.325928 
	C62.215103,644.356201 63.607330,646.386414 65.622009,649.324402 
	C65.245323,646.342041 65.078621,644.567871 64.787048,642.814514 
	C64.281006,639.771423 62.859951,639.717651 60.822880,642.325928 
M884.293274,485.438904 
	C882.744019,487.615753 879.428650,488.542603 879.248535,492.550690 
	C883.263733,490.679474 884.545715,487.470337 887.010071,483.493835 
	C885.492371,484.544495 885.101440,484.815125 884.293274,485.438904 
z"/>

<path fill="#3356f4" opacity="1.000000" stroke="none" 
	d="
M574.060730,361.069458 
	C578.897278,368.466614 580.527466,376.339386 580.345520,384.685638 
	C580.173767,392.562256 580.627075,400.226196 584.626526,407.426636 
	C586.647217,411.064728 585.249512,414.721954 581.620605,416.892456 
	C577.836304,419.155945 574.582581,417.943878 572.075073,414.511932 
	C567.347168,408.040741 566.092041,400.543457 565.775940,392.793488 
	C565.532410,386.822662 566.173523,380.807098 564.516113,374.918243 
	C562.317627,367.106354 557.264771,364.758392 550.109497,368.773285 
	C539.770203,374.574829 533.450623,383.946838 528.729065,394.434906 
	C522.253906,408.817963 520.710999,424.201050 520.297363,439.743500 
	C520.151123,445.237213 520.373047,450.740753 520.223511,456.234283 
	C520.084778,461.332123 517.094849,464.499359 512.775208,464.497681 
	C508.454193,464.496002 505.775269,461.369019 505.681274,456.043365 
	C505.354736,437.544922 505.503204,419.063416 510.664795,401.085724 
	C515.817261,383.139923 524.742859,367.605194 540.862183,357.267578 
	C549.051025,352.015961 557.811218,349.424866 567.193665,354.823120 
	C569.859436,356.356903 571.941223,358.442261 574.060730,361.069458 
z"/>
</svg>