<svg version="1.1" id="Layer_1" x="0px" y="0px"
	 width="100%" viewBox="0 0 1024 1024" enable-background="new 0 0 1024 1024" xml:space="preserve">
<path fill="#3356f4" opacity="1.000000" stroke="none" 
	d="
M528.704773,765.254211 
	C535.691772,764.020081 541.868286,765.776062 545.987122,770.600769 
	C550.950317,776.414612 556.406921,775.717163 562.429077,774.429688 
	C562.728271,773.427551 562.116882,773.017822 561.604004,772.664368 
	C549.412170,764.264343 541.329895,752.580872 535.211609,739.392517 
	C533.874329,736.509766 532.535706,734.695801 528.906128,735.427917 
	C508.276184,739.588745 496.033905,727.947815 492.826111,707.368591 
	C491.723328,700.293762 491.298279,693.175110 492.470551,685.976318 
	C493.129120,681.931824 495.100800,680.480835 498.873627,680.843079 
	C509.042114,681.819336 519.017212,683.582520 528.152283,688.489258 
	C541.582336,695.703003 547.046814,707.728760 542.083740,722.041626 
	C539.727417,728.837097 540.916321,734.135254 543.976257,739.990356 
	C549.800537,751.135193 557.399292,760.575439 567.942444,767.615295 
	C574.242126,771.821716 579.124939,777.549194 584.182007,784.308350 
	C583.731445,773.845886 582.385803,764.298950 580.679504,754.801208 
	C576.195801,729.843811 569.226990,705.757812 554.312988,684.778320 
	C540.656067,665.567139 522.949524,651.694031 499.678711,646.060486 
	C490.119934,643.746399 480.241943,643.416626 470.405792,643.312988 
	C454.579437,643.146057 438.869110,642.101746 423.178070,639.593689 
	C404.139038,636.550537 392.138672,625.467468 384.345245,608.713257 
	C379.534241,598.370667 376.649780,587.450073 374.721436,576.247803 
	C374.387390,574.307129 373.972198,572.380432 373.483124,569.877319 
	C369.217163,573.257751 365.430786,576.425293 361.476074,579.366394 
	C317.536224,612.044128 260.866943,607.008606 223.304504,567.283142 
	C211.311630,554.599670 207.281342,540.322266 213.516556,523.714233 
	C214.654572,520.683044 213.878784,518.402466 212.442719,515.792908 
	C205.677872,503.499847 201.014008,490.340637 206.032425,476.626343 
	C208.808731,469.039307 207.039108,464.478882 202.809326,458.543884 
	C193.279755,445.172577 189.092148,430.419525 195.633804,414.256958 
	C199.643921,404.349060 206.741394,396.866333 215.448410,391.011963 
	C219.060425,388.583344 219.661392,386.545837 217.974808,382.518524 
	C213.634918,372.155579 210.915497,361.421356 212.306061,349.948730 
	C214.217102,334.182190 222.987747,323.657318 237.155090,317.537628 
	C241.267029,315.761444 243.254364,313.521332 243.391647,309.183685 
	C243.464752,306.873993 243.842636,304.535736 244.390549,302.285248 
	C249.265549,282.261627 263.755432,271.050262 285.677155,270.862854 
	C290.919220,270.818054 293.488739,269.745392 294.874786,264.087036 
	C297.202301,254.585373 303.891083,247.982620 312.323151,243.172394 
	C320.412262,238.557800 329.212311,236.153061 338.342468,234.849274 
	C340.517426,234.538712 342.141449,234.085388 342.655792,231.604050 
	C347.347717,208.968262 365.969910,199.179352 389.023285,200.853714 
	C391.410156,201.027069 393.447021,201.218781 395.312805,199.077637 
	C411.311493,180.717712 431.367828,178.691132 452.654633,186.708755 
	C461.158386,189.911682 466.439362,189.161362 473.819946,183.815994 
	C499.962219,164.882523 528.263672,167.918213 550.873352,191.054016 
	C553.803467,194.052322 556.120789,194.397888 559.939636,193.068268 
	C581.978027,185.395111 604.266479,182.471695 626.943054,190.583176 
	C640.639343,195.482422 652.028503,203.603043 661.008057,214.999146 
	C662.892700,217.390915 664.534485,218.453033 667.675659,217.554245 
	C701.807068,207.788239 729.559875,223.854446 744.278503,252.395508 
	C746.378906,256.468445 748.799622,258.464325 753.394165,259.484009 
	C771.958191,263.604004 783.923401,275.717590 791.178894,292.779938 
	C792.755676,296.487793 794.609253,298.457611 798.786743,299.408997 
	C816.735779,303.496674 825.820618,316.494751 830.941956,332.999969 
	C832.118103,336.790497 833.135925,340.669464 833.433411,344.700470 
	C833.733826,348.771545 835.256531,351.827667 838.883850,354.609894 
	C847.480225,361.203430 849.476868,371.131561 850.182434,381.338531 
	C850.541138,386.528687 849.711243,391.651459 848.938599,396.752258 
	C848.648804,398.665863 848.909607,399.917450 850.732910,400.838715 
	C868.456482,409.794250 872.516235,428.036224 867.777222,447.465607 
	C865.968933,454.879303 866.050537,461.158386 868.666931,468.506195 
	C875.124084,486.640594 867.398010,501.595032 855.653259,515.042480 
	C854.122314,516.795349 852.610657,518.773560 850.661072,519.914062 
	C844.193909,523.697266 843.120667,529.218323 843.199463,536.308411 
	C843.406799,554.946289 832.117920,569.594116 813.780090,575.129822 
	C809.186096,576.516541 807.169495,578.633667 806.179993,583.371277 
	C799.542786,615.149536 785.778381,643.224792 761.449402,665.308960 
	C740.828186,684.027527 716.282776,693.813354 688.529785,695.251282 
	C679.056458,695.742188 669.494019,695.856995 660.045288,695.157654 
	C646.545410,694.158447 636.574768,699.925415 628.269531,709.715393 
	C622.286865,716.767700 617.821411,724.748596 614.313965,733.273743 
	C613.817017,734.481750 613.260315,735.886963 613.423279,737.108582 
	C614.454834,744.840210 614.248596,752.636597 614.418274,761.507141 
	C618.109558,757.426025 621.079102,754.127747 624.655579,751.492249 
	C626.815125,749.900757 629.170288,748.610046 631.261230,751.152832 
	C633.455811,753.821655 631.327454,755.664673 629.412598,757.428467 
	C627.331604,759.345093 625.383850,761.405762 623.325439,763.347839 
	C616.274353,770.000488 613.092468,778.056763 613.148132,787.841187 
	C613.184814,794.285278 611.954834,800.751038 611.082886,807.178650 
	C610.738770,809.715759 609.754700,812.399292 606.416382,811.801392 
	C603.504089,811.279846 603.195984,808.852356 603.536377,806.304871 
	C606.031982,787.626282 607.488281,768.865112 606.601074,750.028564 
	C605.823486,733.518921 604.011230,717.119263 596.431396,702.021240 
	C595.092712,699.354675 593.310059,696.907532 591.687256,694.388245 
	C590.409912,692.405273 589.635071,690.309448 591.799805,688.601929 
	C594.196228,686.711731 596.177002,688.061646 597.770386,690.058777 
	C603.494019,697.232971 606.623718,705.643921 609.231262,714.295288 
	C609.845154,716.332153 610.404907,718.385376 611.229065,721.268860 
	C616.728943,712.034241 622.094299,703.830505 629.764893,697.458435 
	C638.182251,690.466003 647.607422,687.068481 658.755615,687.522095 
	C678.400940,688.321533 698.070435,688.824951 717.150635,682.377197 
	C750.329956,671.164795 772.541626,648.241577 787.110474,617.170898 
	C792.917969,604.785339 797.244324,591.879883 799.328369,578.109497 
	C794.879028,576.241028 792.955872,577.591492 791.847717,582.073181 
	C786.174500,605.016052 775.580261,625.330444 758.749878,642.153137 
	C739.477600,661.416504 715.790039,671.656555 689.151367,675.184265 
	C642.747620,681.329285 601.558594,668.080444 564.544922,640.406494 
	C561.133789,637.856079 557.708069,638.124390 554.125488,638.481628 
	C537.841187,640.105591 522.285095,637.300476 507.265747,631.061829 
	C503.093262,629.328674 499.213562,627.039368 495.580048,624.368896 
	C493.472076,622.819641 491.536835,620.780090 493.314331,618.077942 
	C495.157623,615.275696 497.606781,616.447021 499.831207,617.975342 
	C517.252014,629.944397 536.838745,632.313538 557.205505,630.470703 
	C565.679260,629.703979 572.653503,624.448975 580.256042,621.146729 
	C599.202759,612.917114 618.090637,604.577332 637.421875,597.252258 
	C647.311951,593.504639 657.456543,592.426941 667.830872,592.796021 
	C672.119873,592.948608 674.139343,591.134827 675.364319,587.245728 
	C677.016479,582.000488 678.786377,576.793213 679.578186,571.343750 
	C679.980957,568.571411 680.652588,566.166382 684.033691,566.748779 
	C687.292603,567.310059 687.601990,570.053345 687.074219,572.622986 
	C685.875610,578.459473 684.405396,584.240234 683.054382,590.006104 
	C684.601868,591.147339 686.049133,590.495117 687.488525,590.214417 
	C700.992371,587.580505 713.773438,583.326050 725.566467,575.849182 
	C734.669983,570.077454 745.061890,568.513428 755.866455,570.000122 
	C765.312134,571.299744 774.774170,571.059692 784.264648,570.055176 
	C789.213013,569.531372 794.246765,569.695190 799.240295,569.738037 
	C823.289429,569.944458 839.989502,550.171448 835.591187,526.630554 
	C833.632690,516.148499 824.714783,510.766815 813.986450,513.776123 
	C811.283691,514.534241 808.722839,515.837952 806.149414,517.006775 
	C803.658569,518.138123 800.866150,519.685059 799.196533,516.407471 
	C797.426575,512.932739 800.327148,511.315735 802.938110,510.011200 
	C807.703735,507.630066 812.714966,505.934387 818.776672,505.109619 
	C809.942505,497.382233 800.471985,495.544922 790.008057,497.962616 
	C784.575989,499.217712 779.866882,502.078339 775.201477,505.036560 
	C772.512146,506.741760 772.137756,508.416412 773.902527,511.141724 
	C776.762878,515.558838 778.335815,520.541443 778.000671,525.828491 
	C777.487976,533.917908 768.458252,543.603760 760.524109,545.050049 
	C758.446655,545.428772 756.940186,544.592346 755.678833,543.142761 
	C745.315186,531.232361 744.974915,518.358521 758.306030,508.780060 
	C762.378784,505.853760 765.932800,502.451141 770.032104,499.127380 
	C767.396667,496.800781 764.289795,497.328583 761.463562,496.909241 
	C758.844543,496.520630 756.134521,495.944763 756.493286,492.603821 
	C756.869812,489.098206 759.798401,488.397095 762.544556,489.187805 
	C773.782593,492.423492 784.678101,491.178223 796.177490,489.503784 
	C810.287537,487.449188 821.696960,495.494690 830.962158,505.848114 
	C834.370605,509.656952 837.243713,513.944824 840.348999,517.998474 
	C854.207397,509.057343 867.472839,489.785248 862.028687,471.724640 
	C859.041077,461.813385 856.193542,459.649536 845.903625,460.928619 
	C843.099548,461.277191 840.322327,461.837036 837.523132,462.231262 
	C835.181702,462.560974 832.981812,462.167236 832.377014,459.515259 
	C831.760376,456.811646 833.673828,455.474213 835.920410,454.948822 
	C841.754395,453.584473 847.618713,452.107483 853.684387,453.317108 
	C856.240784,453.826935 858.212036,453.721252 859.179565,450.713318 
	C861.828796,442.477814 862.819153,434.095581 861.145264,425.591431 
	C859.065369,415.024445 852.182861,408.413483 842.134583,405.804810 
	C831.818420,403.126556 822.948730,407.005981 816.230469,414.939697 
	C811.108765,420.987915 806.887146,427.339233 806.986572,436.242401 
	C807.096497,446.084106 798.832764,453.113068 788.179321,454.232147 
	C775.746826,455.538055 774.048706,453.943787 774.692139,441.569336 
	C775.316467,429.562164 783.300964,421.579773 795.321533,421.798492 
	C800.407898,421.891052 803.531982,420.558167 806.037720,415.951782 
	C809.416504,409.740540 814.768005,405.113678 821.093201,401.212372 
	C819.304993,398.659241 816.629944,398.853760 814.374146,398.321381 
	C811.816223,397.717621 809.759033,396.567596 810.197754,393.719025 
	C810.658936,390.725220 813.252319,390.512695 815.687866,390.793732 
	C820.404236,391.337860 824.637268,393.287903 828.748962,395.547821 
	C830.479858,396.499176 832.086670,397.582764 834.273499,397.586700 
	C840.973755,397.598694 840.755005,397.643585 841.930054,390.924652 
	C842.896729,385.396942 842.640930,380.006317 841.696350,374.547241 
	C839.676208,362.871826 832.033081,355.961639 820.166870,355.380463 
	C809.140381,354.840363 798.680908,357.363708 788.546631,361.517334 
	C786.768616,362.246094 785.499634,363.477448 784.464111,365.047974 
	C774.441711,380.249878 764.916016,395.684509 760.861938,413.784760 
	C760.336243,416.131927 759.353699,418.610779 756.291687,417.922241 
	C753.224487,417.232544 752.717224,414.876465 753.501526,412.038879 
	C753.892517,410.624390 753.986511,409.127838 754.320923,406.990723 
	C745.340820,411.551514 738.527771,417.944183 732.213013,424.960693 
	C730.653015,426.694061 729.201904,428.526337 727.621277,430.239868 
	C726.035095,431.959534 724.177673,433.168365 722.017944,431.230835 
	C719.998291,429.419037 720.470764,427.296478 721.967529,425.424316 
	C730.682373,414.523499 740.381042,404.709198 753.397827,398.998749 
	C756.532288,397.623688 758.586304,395.965607 759.888794,392.746490 
	C762.701904,385.793732 766.453735,379.282257 769.812134,372.319489 
	C767.393799,374.335236 764.905457,376.273926 762.578247,378.389893 
	C760.542419,380.241028 758.365845,381.624207 756.068054,379.299103 
	C753.642944,376.845062 755.415039,374.660614 757.334839,372.894623 
	C775.378235,356.296692 796.400818,347.232635 821.195251,347.773743 
	C822.500244,347.802216 823.806396,347.777374 825.394470,347.777374 
	C826.431580,343.069244 824.722717,338.818390 823.453247,334.635529 
	C818.493286,318.292694 808.873352,306.910095 790.636230,305.760864 
	C780.860291,305.144806 771.422119,307.283173 762.455322,311.203339 
	C759.234802,312.611298 758.591248,316.047028 757.382629,318.920837 
	C755.553894,323.268890 755.226196,327.972412 754.458801,332.559601 
	C754.066162,334.907013 753.370483,337.143921 750.658691,336.865906 
	C747.623596,336.554779 746.656189,334.117920 747.004028,331.315674 
	C747.450134,327.722229 748.087769,324.152557 748.727661,320.025665 
	C744.432861,321.595917 742.250305,324.837677 739.535339,327.387177 
	C737.665588,329.143005 735.766541,331.216125 733.186523,328.723175 
	C730.742004,326.361084 732.215637,324.230011 734.037476,322.241821 
	C746.112366,309.064484 761.117920,301.472137 778.692139,298.753479 
	C780.165344,298.525604 781.643616,298.304443 783.093628,297.968475 
	C783.514709,297.870941 783.845825,297.385223 784.185425,297.104492 
	C780.925781,282.163269 764.305420,267.918640 748.421326,266.254608 
	C735.672546,264.919037 723.557312,267.319427 711.813110,272.135590 
	C710.580444,272.641113 709.331787,273.107971 708.101868,273.619904 
	C705.642761,274.643341 703.399780,274.582794 702.239990,271.828857 
	C701.114929,269.157501 702.981323,267.761444 705.061890,266.834900 
	C713.771301,262.956421 722.765503,259.990997 732.258789,258.729736 
	C734.058899,258.490601 735.919800,258.544189 737.496094,257.565521 
	C738.248962,256.202026 737.314758,255.305023 736.757507,254.330383 
	C719.280579,223.764374 692.113403,214.892944 658.225647,228.690598 
	C656.837769,229.255692 655.491577,229.922256 654.112061,230.508957 
	C647.095947,233.492859 641.969299,236.508179 641.612061,246.296356 
	C641.087280,260.677338 629.133179,269.093018 611.921753,270.175079 
	C604.211365,270.659821 596.642639,269.469971 589.134583,267.851959 
	C584.977234,266.956055 583.343933,264.767395 584.434875,260.271576 
	C586.408936,252.136551 588.797668,244.204651 592.916016,236.870514 
	C602.348694,220.072464 617.620605,215.329102 634.283508,224.847488 
	C639.436951,227.791275 643.359924,228.408432 648.148987,224.990601 
	C650.264465,223.480835 652.882935,222.675842 655.451233,221.467056 
	C654.393311,217.578659 651.594055,215.363586 649.095703,213.056854 
	C630.327209,195.728088 608.162781,190.483658 583.344116,194.734802 
	C575.602356,196.060867 568.104126,198.206100 560.693359,200.767334 
	C558.010925,201.694443 556.083740,203.052017 554.909058,205.759415 
	C553.169556,209.768829 550.569153,213.354568 547.354004,216.243149 
	C539.619751,223.191757 535.786743,232.447769 531.981262,241.660507 
	C528.657471,249.707108 530.257751,257.692230 533.721008,265.389099 
	C534.267212,266.602997 534.963989,267.748230 535.546814,268.946747 
	C536.586548,271.085022 536.885742,273.289581 534.567993,274.675171 
	C531.936401,276.248352 530.114441,274.638428 528.851257,272.438599 
	C522.466858,261.320740 520.517639,249.724258 525.294495,237.464142 
	C525.897766,235.915726 526.599426,234.405640 527.279602,232.821762 
	C522.773560,233.907730 504.951172,243.731613 501.991669,246.678375 
	C495.803101,252.840271 493.957550,260.719513 493.345947,268.992828 
	C492.890778,275.150543 493.243835,281.314056 494.519470,287.380310 
	C495.071350,290.004761 494.647278,292.269409 491.823212,292.914215 
	C488.843048,293.594666 487.542542,291.282715 487.104095,288.902252 
	C484.712860,275.919739 484.501617,263.057251 490.008972,250.666626 
	C493.491882,242.830765 499.477234,237.544083 507.123352,233.907791 
	C518.135010,228.670959 528.769531,222.812424 538.072327,214.787872 
	C541.770020,211.598282 544.870544,207.939392 547.418213,203.787064 
	C548.666809,201.751999 548.969543,199.935028 547.119324,197.936157 
	C525.143860,174.195312 496.833008,172.986725 472.630890,194.143036 
	C472.160278,194.554382 471.890350,195.195282 471.283691,196.086029 
	C478.641968,203.891251 481.724518,213.303726 481.204773,223.901901 
	C481.099518,226.047897 480.692047,228.197937 480.226746,230.302505 
	C479.685303,232.751312 478.548859,234.924408 475.519196,234.232483 
	C472.511719,233.545639 472.338867,231.004395 472.874481,228.625748 
	C474.036621,223.464478 473.868469,218.379532 472.613190,213.289276 
	C471.288849,207.919098 468.691467,203.200119 463.991394,200.251190 
	C450.691010,191.906250 436.317017,187.897446 420.628296,191.377701 
	C411.263336,193.455154 403.395172,198.686951 399.072479,207.156326 
	C391.034637,222.904785 401.501434,240.147308 419.303162,241.677353 
	C422.535522,241.955154 427.571198,240.683136 426.955170,246.067963 
	C426.381195,251.085587 421.425354,249.371414 418.296570,249.127274 
	C400.116058,247.708572 389.548370,236.008774 389.649506,217.811386 
	C389.665131,214.997101 389.651672,212.182648 389.651672,209.348068 
	C376.233551,205.858536 356.532990,211.597641 351.250031,229.295761 
	C346.418213,245.482544 348.513000,261.248047 353.993683,276.776733 
	C357.649994,287.136414 362.230286,297.201599 365.366333,307.706268 
	C370.621460,325.309326 366.796661,340.953369 353.132965,353.736755 
	C352.060547,354.740051 350.831818,355.693054 349.502899,356.274231 
	C348.011169,356.926575 346.560364,356.406403 345.543427,355.023102 
	C344.662842,353.825226 344.611298,352.540009 345.283997,351.264130 
	C345.587402,350.688629 346.037354,350.155029 346.523621,349.716400 
	C362.059418,335.702942 362.753876,319.143127 355.174438,300.960022 
	C349.793823,288.051697 344.287659,275.134155 342.169708,261.167755 
	C341.254669,255.133698 340.866089,249.019852 340.240387,242.961868 
	C321.842102,243.893524 303.109741,253.483780 300.755768,271.103577 
	C299.893951,277.553986 299.566742,284.091339 300.900055,290.496613 
	C303.178589,301.442871 309.744598,306.708954 320.913788,306.945862 
	C323.076721,306.991730 325.243378,306.826294 327.408844,306.797546 
	C329.682220,306.767303 331.409729,307.730988 331.738556,310.063202 
	C332.080444,312.488251 330.462982,313.727844 328.309845,314.209717 
	C317.747864,316.573608 300.863770,313.379883 295.130707,297.647064 
	C293.464722,293.075256 292.317657,288.369171 292.674805,283.469818 
	C292.958679,279.575195 291.439331,278.099457 287.496429,278.265717 
	C260.500397,279.404266 251.434982,293.175079 250.574936,314.892883 
	C250.301514,321.797394 254.260193,326.780701 260.103699,330.274475 
	C265.159698,333.297424 270.704712,335.152893 276.278015,336.831818 
	C293.655396,342.066559 303.247650,354.271606 307.705811,371.261688 
	C308.406128,373.930573 308.646271,376.503693 305.589172,377.515076 
	C302.330505,378.593140 301.348633,376.027863 300.470306,373.523712 
	C299.259338,370.071198 298.011902,366.622131 296.569580,363.261932 
	C292.732880,354.323486 286.058502,348.458130 276.885834,345.297821 
	C272.005707,343.616425 267.139740,341.869415 262.363739,339.916321 
	C255.267761,337.014526 249.090881,332.872620 245.499878,325.784302 
	C244.325180,323.465546 242.958359,323.324677 240.674103,324.224579 
	C226.117844,329.958984 217.891922,344.126312 219.985321,359.804779 
	C221.549316,371.518372 224.246857,382.827332 232.461807,391.825653 
	C244.888336,405.437225 260.543854,407.943512 277.800415,404.224884 
	C292.361755,401.087036 305.348328,394.417969 317.705658,386.353149 
	C318.681610,385.716217 319.577209,384.940002 320.597382,384.390411 
	C322.549896,383.338531 324.584656,383.233673 325.950928,385.206177 
	C327.296326,387.148529 326.711609,389.164520 324.901306,390.503387 
	C321.959259,392.679321 318.949188,394.795990 315.800690,396.654510 
	C299.547333,406.248779 282.584229,413.605988 263.168976,413.329407 
	C249.494064,413.134583 237.628830,408.487427 228.292984,398.542084 
	C224.589020,394.596313 221.971298,394.703094 218.521500,398.194702 
	C217.243088,399.488647 215.605896,400.420197 214.253693,401.650421 
	C196.124512,418.144196 195.157715,439.135101 213.813751,460.171753 
	C215.198334,460.453491 215.934464,459.397980 216.781693,458.661865 
	C224.325577,452.107635 232.919510,447.277130 242.486511,444.665009 
	C254.525604,441.377930 264.890259,435.413879 274.099548,427.183563 
	C276.181427,425.322937 278.445190,423.453308 280.925690,426.345184 
	C283.194794,428.990631 281.142090,430.863953 279.274750,432.674774 
	C274.362305,437.438599 268.666473,441.184296 262.910645,445.066681 
	C263.276093,445.650726 263.429871,446.253235 263.770691,446.390137 
	C283.988922,454.511322 304.704865,460.662872 326.718597,460.606262 
	C337.113068,460.579559 347.330048,459.066101 356.125488,452.632477 
	C358.243347,451.083344 360.605286,450.853882 362.191132,453.396637 
	C363.834320,456.031433 362.079102,457.854218 360.098663,459.256622 
	C351.209106,465.551483 341.029297,467.806122 330.391327,468.226288 
	C308.166565,469.104065 287.197998,463.330017 266.585907,455.817322 
	C265.334229,455.361115 264.040558,454.965088 262.872955,454.341583 
	C246.366119,445.526642 234.066803,455.042114 222.412598,464.425629 
	C210.449356,474.057953 210.120941,487.292267 214.197510,500.968048 
	C215.228531,504.426788 216.922165,507.687988 218.635056,511.821136 
	C221.865540,507.687469 224.528702,504.174866 227.302628,500.752014 
	C233.207596,493.465607 240.083282,487.169098 247.425476,481.374176 
	C249.549606,479.697632 252.088486,477.759644 254.401581,480.608398 
	C256.928009,483.719818 254.236618,485.759613 252.030777,487.593140 
	C241.608612,496.256256 231.765503,505.452911 224.880112,517.330811 
	C214.292984,535.594360 216.037338,549.185547 230.822586,564.203857 
	C265.137604,599.059814 318.119690,602.850098 356.984131,573.215332 
	C358.160553,572.318237 359.225220,571.274719 360.710358,569.977783 
	C356.703247,564.029785 351.319733,560.080139 345.140167,557.066589 
	C335.594086,552.411316 325.113098,552.539429 314.916565,551.228271 
	C313.159790,551.002380 311.692444,551.937073 310.218689,552.698303 
	C303.345795,556.248169 295.940643,558.180786 288.464233,559.899841 
	C286.013702,560.463257 283.509338,560.517883 282.730408,557.589355 
	C281.881409,554.397583 284.099792,553.258545 286.826172,552.553223 
	C291.146454,551.435547 295.410309,550.099854 300.860443,548.519287 
	C295.984314,546.366150 292.192383,544.845215 288.537506,543.045837 
	C280.964996,539.317810 274.484009,534.132507 269.000793,527.726868 
	C267.338654,525.785156 266.512482,523.526062 268.887695,521.598022 
	C271.026855,519.861511 273.008881,520.942322 274.550354,522.738464 
	C287.554535,537.890503 305.158752,543.010803 323.987183,544.496216 
	C340.483612,545.797668 354.908447,550.706482 365.993317,563.508789 
	C366.181824,563.726501 366.577972,563.764282 367.321716,564.066833 
	C380.601990,552.876953 387.500244,536.862671 397.370148,523.162048 
	C395.971924,520.281372 393.463287,519.520752 391.326538,518.411743 
	C373.998077,509.417908 355.439880,506.485016 336.133423,507.526978 
	C333.360504,507.676636 330.371521,508.288513 329.888062,504.573669 
	C329.360504,500.520355 332.680969,500.128815 335.538300,499.935516 
	C346.711487,499.179810 357.803711,500.077179 369.311066,502.254089 
	C368.937469,499.101410 366.991486,497.195496 365.890167,494.934418 
	C365.014954,493.137604 363.977325,491.411713 363.215027,489.570251 
	C362.320374,487.408997 362.195312,485.150299 364.653778,483.945618 
	C367.138214,482.728180 368.693481,484.240265 369.899384,486.316559 
	C372.157166,490.204071 374.551239,494.014404 376.739471,497.939941 
	C380.642395,504.941437 387.307617,508.164703 394.170776,511.384491 
	C402.891052,515.475525 402.769745,515.649414 408.942993,508.163086 
	C414.884125,500.958130 421.040802,493.925507 428.054443,487.748199 
	C430.299591,485.770782 430.272766,484.306763 429.073425,481.822601 
	C424.207214,471.743652 420.103424,461.425690 419.290161,450.038513 
	C419.024048,446.312592 419.423431,442.683502 419.995667,439.120911 
	C420.433838,436.392975 419.802460,434.776703 417.787048,433.127869 
	C397.057953,416.169556 374.259583,411.908936 349.112579,421.775482 
	C348.337830,422.079498 347.599762,422.478058 346.821777,422.772247 
	C344.729187,423.563690 342.826416,423.443756 341.660675,421.255493 
	C340.308746,418.717712 341.750610,417.109344 343.799225,415.961517 
	C345.389984,415.070129 347.096222,414.355255 348.808228,413.714355 
	C363.444183,408.235321 378.297089,407.296906 393.430664,411.524109 
	C395.280640,412.040833 397.081726,413.265411 399.584869,412.445923 
	C399.584869,406.567017 399.618835,400.599213 399.565613,394.632172 
	C399.548065,392.665344 398.094025,391.321930 397.064301,389.834351 
	C385.127350,372.589325 396.912933,360.230957 408.882172,354.819733 
	C411.395142,353.683563 413.440125,354.414551 415.032227,356.537079 
	C423.881866,368.334686 426.471893,382.537872 410.828003,391.964478 
	C408.242523,393.522369 406.880035,395.360413 407.205475,398.396881 
	C407.311249,399.384033 407.189514,400.394623 407.185699,401.394562 
	C407.122864,417.859406 408.225739,419.586090 424.013123,427.268127 
	C430.158661,417.411499 439.147400,410.413513 448.433533,403.544647 
	C453.088440,400.101410 452.927673,393.726990 453.579498,388.362091 
	C454.652405,379.531769 452.859039,371.420319 447.938446,363.620300 
	C441.239777,353.001801 435.993835,341.608276 436.711273,328.479462 
	C437.005554,323.093872 438.370483,317.978546 440.689819,313.113037 
	C441.798309,310.787598 443.608246,309.787567 445.970856,310.942657 
	C448.098267,311.982788 448.501923,313.960052 447.541260,316.067657 
	C441.024567,330.364777 444.603607,343.803772 452.466949,355.934082 
	C460.471863,368.282867 463.380127,381.068512 460.362091,395.194580 
	C460.942505,395.501007 461.314392,395.843933 461.478851,395.763367 
	C479.129395,387.118713 497.153687,379.083282 510.058746,363.259583 
	C512.938904,359.728119 514.114807,356.555939 512.908020,351.938019 
	C510.294128,341.935608 506.393372,332.716614 499.370026,324.999603 
	C497.691650,323.155487 496.218140,321.073212 498.329773,318.891968 
	C500.635590,316.510162 502.915894,317.944855 504.813019,319.851685 
	C509.820221,324.884430 513.487732,330.811829 516.153320,337.355713 
	C517.524048,340.720612 518.691895,344.168182 519.952515,347.581573 
	C522.075989,347.453857 522.354248,345.740540 523.059021,344.563599 
	C533.271729,327.509186 539.524780,308.962891 543.664612,289.626892 
	C543.873535,288.651062 544.048218,287.666138 544.301453,286.701874 
	C544.956177,284.209045 546.212769,282.167694 549.156494,282.969452 
	C551.727234,283.669556 552.024597,285.862854 551.630554,288.232391 
	C549.045837,303.774872 544.170105,318.619537 537.745422,332.951996 
	C527.967346,354.765259 514.638428,373.804779 494.426544,387.337738 
	C493.902161,387.688873 493.493103,388.212311 492.670135,389.000153 
	C501.015045,392.626068 507.971863,397.567444 512.604309,405.215546 
	C513.719299,407.056274 514.648438,409.028778 515.478760,411.017578 
	C516.407104,413.241180 515.578186,415.010956 513.431519,415.923035 
	C511.399902,416.786224 509.894806,415.752411 508.831787,414.018860 
	C507.441132,411.750916 506.235992,409.354645 504.695587,407.195862 
	C500.455902,401.254303 494.554230,397.644379 487.619690,395.694122 
	C483.853546,394.634979 480.320068,394.748474 476.592804,396.765961 
	C465.307312,402.874542 453.883179,408.694305 443.725739,416.672424 
	C428.263550,428.817078 423.639740,442.932434 429.234497,461.756287 
	C431.033691,467.809753 433.181396,473.744720 436.485657,479.126587 
	C438.998474,479.243683 440.244232,477.409729 441.763336,476.283539 
	C448.208221,471.505646 454.908813,467.129883 462.156158,463.711487 
	C465.674438,462.052032 467.374817,459.916107 467.915344,455.885620 
	C468.707367,449.979462 470.463348,444.195709 471.926208,438.389465 
	C472.606720,435.688599 473.768188,432.875427 477.269928,433.927490 
	C480.795715,434.986786 480.006897,437.989319 479.274048,440.622528 
	C477.805603,445.898895 476.374268,451.178406 475.793854,456.618622 
	C476.190399,456.830933 476.531708,457.168701 476.733307,457.099518 
	C491.864227,451.903351 507.543823,448.501984 522.703430,443.569885 
	C533.542786,440.043304 540.434692,430.472351 546.822388,421.199493 
	C549.942871,416.669586 551.495361,411.537079 551.558289,406.150757 
	C551.661560,397.302643 552.514038,388.542297 553.711792,379.800964 
	C554.664185,372.850250 556.385193,366.096649 558.989868,359.561249 
	C562.835205,349.913177 570.025879,343.488800 578.870239,338.615631 
	C583.132568,336.267151 585.862610,333.382751 586.256165,327.870483 
	C586.872498,319.240723 589.557190,310.915863 592.364624,302.711121 
	C593.206970,300.249481 594.218140,297.565033 597.435181,298.472351 
	C600.910645,299.452454 600.454224,302.273468 599.572876,305.041504 
	C597.460266,311.676788 595.490967,318.352478 594.157959,326.144623 
	C599.833984,321.667999 603.025696,316.415649 605.812073,310.852295 
	C606.407837,309.662842 606.810242,308.361969 607.510010,307.242523 
	C608.554932,305.570862 610.025024,304.453033 612.109558,305.394806 
	C614.077576,306.283997 614.644958,308.035095 614.146240,309.991119 
	C613.738831,311.588959 613.051758,313.129700 612.366272,314.640198 
	C606.627563,327.285187 597.086182,336.971588 585.252014,343.193298 
	C566.231750,353.193085 561.995605,370.159637 560.306885,388.982239 
	C559.756958,395.112305 559.548950,401.273438 559.202637,407.421356 
	C558.597717,418.159027 553.287781,426.666931 546.410583,434.427460 
	C545.097046,435.909729 543.705872,437.323181 542.544434,439.235809 
	C572.561218,432.973267 603.500916,429.797394 630.478394,411.690491 
	C624.925537,406.716003 620.654480,401.704865 619.403564,394.548340 
	C616.517761,378.038055 631.433777,363.536011 647.768982,367.392090 
	C650.824951,368.113495 653.262146,368.051086 656.201172,366.451019 
	C669.897217,358.994415 685.515869,365.297607 690.461731,380.182526 
	C691.463440,383.197083 692.810181,385.194305 695.652832,386.884979 
	C708.771301,394.687408 711.065491,412.439209 700.463989,423.420624 
	C698.346436,425.614014 697.304749,427.717255 697.276428,430.825073 
	C697.133484,446.518646 683.384216,457.042267 667.916931,453.405090 
	C665.386719,452.810059 663.301331,452.805389 660.864502,454.215607 
	C651.851685,459.431549 641.373352,458.596130 633.733276,452.431580 
	C626.106812,446.278168 623.158325,435.695587 626.320923,425.759857 
	C626.557190,425.017609 626.925354,424.317352 627.525757,422.909058 
	C596.497803,439.454468 562.486511,442.610413 529.717285,450.249298 
	C513.169128,454.106873 496.738098,458.314117 480.700714,463.986755 
	C450.625122,474.624908 428.575958,495.422699 409.290283,519.876282 
	C399.252747,532.603516 392.223785,547.330811 382.103516,559.984070 
	C380.115387,562.469849 381.065948,565.535645 381.399567,568.230103 
	C382.959198,580.827393 385.839966,593.079346 390.946411,604.806091 
	C398.082764,621.194275 410.035980,630.569214 428.016907,632.794556 
	C444.092407,634.784119 460.191467,635.678345 476.344574,635.689575 
	C507.828125,635.711365 533.601868,648.061523 553.988464,671.675720 
	C568.881470,688.926575 577.442505,709.468872 583.320312,731.254761 
	C589.596680,754.518127 592.027771,778.302429 593.380554,802.277100 
	C594.665161,825.044128 596.403381,847.785461 597.918518,870.539673 
	C598.073364,872.864441 598.210632,875.207031 598.096130,877.528564 
	C597.974915,879.986328 597.261169,882.366699 594.181519,882.327698 
	C591.135071,882.289185 590.495239,880.027832 590.366638,877.475952 
	C589.805237,866.338074 589.328918,855.194336 588.614197,844.066101 
	C587.824768,831.774658 587.147461,819.459900 585.775513,807.227661 
	C584.822876,798.733643 579.995422,791.736389 574.939941,785.038208 
	C574.839966,784.905701 574.729126,784.776794 574.603943,784.668579 
	C570.804077,781.384277 550.963867,782.614807 547.653931,786.457886 
	C535.804382,800.216187 521.458374,794.524719 512.248901,784.670166 
	C510.231750,782.511780 510.320404,780.146240 511.987762,777.844299 
	C516.174866,772.063477 521.051514,767.156616 528.704773,765.254211 
M762.906738,588.255737 
	C745.836548,626.408813 715.687378,646.289917 674.771790,650.087585 
	C644.650208,652.883362 616.962830,645.258789 592.229919,627.557251 
	C591.164246,626.794556 590.128784,625.522827 588.704285,626.079163 
	C582.469910,628.513977 576.359863,631.221252 570.036011,634.741699 
	C571.623352,636.094849 572.327942,636.801697 573.132446,637.366089 
	C606.679565,660.901550 643.525024,672.473816 684.744751,667.930176 
	C724.275024,663.572815 754.420288,644.847290 773.397400,609.394470 
	C778.494019,599.873169 782.481140,589.871399 784.541870,579.200684 
	C781.638977,577.506470 778.932068,578.340088 776.358276,578.366516 
	C766.751770,578.465027 766.752441,578.527771 762.906738,588.255737 
M664.986938,600.566589 
	C652.816101,600.597168 641.176331,602.751099 629.782837,609.067200 
	C651.016602,616.954224 671.822449,619.311829 693.241577,613.847900 
	C696.272217,613.074829 700.564453,610.787415 701.736755,615.458252 
	C702.946045,620.276306 698.030457,620.445374 694.826660,621.348938 
	C685.309082,624.033447 675.519897,624.729553 664.659668,624.686035 
	C668.381226,626.596619 671.347717,626.806763 674.315186,627.032471 
	C676.946899,627.232544 679.671265,627.727478 679.490784,631.090210 
	C679.294617,634.743103 676.277527,634.917908 673.538696,634.772644 
	C665.272766,634.334106 657.992859,631.387939 651.769287,625.883850 
	C649.906311,624.236206 648.139893,622.471008 645.552917,621.874817 
	C637.258057,619.963196 629.212646,617.293579 621.431702,613.822388 
	C620.556396,613.431885 619.385742,613.057129 618.553589,613.317932 
	C611.671448,615.474792 605.199463,618.549744 598.205872,621.961060 
	C599.928162,623.284729 600.810425,624.035522 601.764893,624.679077 
	C603.144592,625.609314 604.550659,626.506958 605.990417,627.340820 
	C619.860535,635.373169 634.684143,640.543030 650.687927,642.112732 
	C675.934570,644.589111 699.711792,640.502625 721.605774,626.938110 
	C728.194519,622.855957 732.405640,617.912781 732.908203,609.990601 
	C733.128113,606.524109 734.088318,603.110596 734.542725,599.650818 
	C734.863525,597.208923 735.714600,595.311951 738.487061,595.554810 
	C741.164734,595.789246 741.792480,597.947205 742.103333,600.227600 
	C742.436768,602.673645 740.905945,605.036499 741.894104,608.150513 
	C749.283325,599.142700 754.704895,589.655151 758.183044,578.670837 
	C747.932556,575.461060 738.316345,576.920105 729.990967,582.169250 
	C710.306274,594.580444 688.593689,599.016296 664.986938,600.566589 
M645.220093,449.616913 
	C650.631592,450.533356 655.501465,449.351959 659.638977,445.694550 
	C661.780945,443.801117 664.011719,443.362885 666.480164,444.822876 
	C677.074524,451.089081 692.307190,441.327179 689.468445,426.873596 
	C688.942627,424.196045 689.719604,422.494202 691.699341,420.810150 
	C703.749207,410.560028 702.070740,398.493866 687.596191,391.600555 
	C685.180847,390.450256 683.836609,388.869110 683.825073,386.294373 
	C683.768921,373.715698 668.007507,365.770660 656.840942,375.285889 
	C654.653015,377.150238 652.605408,377.599701 650.037354,376.214264 
	C648.737549,375.513031 647.260193,375.066315 645.810852,374.729462 
	C638.582275,373.049286 630.310120,377.747009 627.813232,384.881317 
	C625.071533,392.715118 628.066467,400.696991 634.905457,403.783234 
	C644.092773,387.230591 657.891602,382.208618 671.148438,390.592926 
	C682.565186,397.813446 685.486206,412.936035 677.660645,424.316284 
	C673.848999,429.859283 668.394104,433.005066 661.946167,434.024994 
	C651.557983,435.668152 643.655212,430.967102 637.584045,422.850006 
	C628.697327,432.292114 631.994751,444.166443 645.220093,449.616913 
M597.669800,244.169479 
	C595.451477,249.307098 593.257019,254.451508 592.700378,260.413788 
	C602.341614,263.038177 611.630981,263.642181 620.942261,260.728882 
	C631.598694,257.394684 637.615906,246.002197 634.582336,235.241791 
	C634.128906,233.633408 632.998657,232.793518 631.717346,231.983871 
	C620.144104,224.671432 608.641296,227.023438 600.996094,238.328354 
	C599.883484,239.973587 599.005432,241.777496 597.669800,244.169479 
M507.937256,689.689270 
	C505.345215,689.403687 502.753204,689.118042 499.819641,688.794739 
	C498.791016,698.215088 499.721924,706.877991 502.787415,715.245789 
	C506.521912,725.439880 515.048157,730.168823 525.721619,728.164856 
	C528.263245,727.687622 531.015930,727.794922 532.827637,725.204834 
	C538.209167,717.510986 536.507812,704.405640 529.269958,698.358276 
	C523.300598,693.370911 516.056885,691.548889 507.937256,689.689270 
M644.161011,418.119843 
	C645.033813,419.330719 645.794800,420.644562 646.798462,421.734955 
	C651.603699,426.955353 658.908142,428.083588 665.539795,424.714844 
	C671.658325,421.606750 675.474976,414.369873 674.220520,408.255035 
	C672.190796,398.360687 663.543884,392.592499 654.392151,395.027924 
	C644.413513,397.683411 640.148376,406.714172 644.161011,418.119843 
M783.941467,446.608490 
	C794.282532,446.905792 800.383728,441.487549 799.752747,432.706573 
	C799.597168,430.543060 798.928223,429.482269 796.590454,429.220367 
	C786.955200,428.140900 779.935364,437.020142 783.941467,446.608490 
M766.115845,513.707947 
	C757.092407,515.991455 753.250793,525.576050 757.996582,533.614624 
	C759.511841,536.181274 760.975159,536.631287 763.588135,535.077637 
	C771.244324,530.525146 772.364929,523.356018 766.115845,513.707947 
M405.908386,385.862427 
	C414.878693,380.700684 416.868500,373.803101 411.744904,365.673401 
	C411.037872,364.551514 410.484192,363.322876 408.763824,363.613617 
	C405.773346,364.119049 400.885864,369.926270 400.172333,373.902863 
	C399.251282,379.036072 401.169281,383.591125 405.908386,385.862427 
M534.637573,786.501404 
	C537.001404,785.638611 539.002014,784.254395 540.858765,782.546631 
	C543.784241,779.856079 543.550049,777.837219 540.256775,775.520630 
	C532.793091,770.270447 524.919739,772.227051 519.845093,781.165833 
	C523.768494,784.847778 528.054016,787.554077 534.637573,786.501404 
z"/>
<path fill="#000000" opacity="1.000000" stroke="none" 
	d="
M486.179382,523.159668 
	C472.276672,531.218994 464.429016,543.185730 459.970673,558.053894 
	C457.999725,564.626892 461.942871,570.049316 461.579865,576.129089 
	C461.557770,576.499146 462.126709,577.250305 462.401245,577.241089 
	C467.572449,577.069580 471.876923,581.548279 477.702698,579.095032 
	C490.809265,573.575684 504.459534,572.252808 518.195557,576.787537 
	C521.463745,577.866394 523.022522,576.696228 524.893982,574.452759 
	C533.897827,563.658813 544.832886,555.785889 558.918335,553.156494 
	C568.401550,551.386292 577.864929,553.288635 587.287903,554.085815 
	C604.486633,555.540710 621.550354,554.416687 638.596680,552.306396 
	C642.887512,551.775146 647.162903,551.077393 651.415710,550.294861 
	C654.147034,549.792419 656.656555,549.820923 657.362488,553.030457 
	C658.107544,556.417480 655.451477,557.333740 652.916260,557.819397 
	C640.641968,560.170776 628.234985,561.644165 615.766724,562.155090 
	C601.621521,562.734802 587.491333,562.298157 573.395569,560.484497 
	C556.754089,558.343323 537.658936,567.617371 529.971130,581.468689 
	C542.359802,587.255432 555.028442,592.102905 568.208557,595.608093 
	C570.455017,596.205505 572.785828,596.479187 575.048584,597.023621 
	C577.487915,597.610474 579.669556,598.747314 579.057373,601.734863 
	C578.463623,604.632446 576.200867,605.014404 573.603943,604.584351 
	C563.686279,602.942139 554.274414,599.572083 544.898743,596.125427 
	C538.701111,593.847046 532.617676,591.257874 525.971558,588.603638 
	C527.328247,590.917542 528.443787,592.712585 529.451233,594.566345 
	C530.650757,596.773376 530.477112,598.832520 528.166260,600.163574 
	C525.994690,601.414429 524.207642,600.387085 523.086548,598.498230 
	C520.109314,593.482056 515.618164,590.010010 511.107056,586.597412 
	C503.839111,581.099304 488.456604,580.960632 480.849854,586.020325 
	C479.003387,587.248535 479.362946,588.708984 479.622772,590.386414 
	C480.893311,598.588806 478.238922,604.241882 470.997772,608.196716 
	C468.966431,609.306091 467.763031,610.855957 466.573364,612.717957 
	C461.496246,620.664062 452.576324,622.848450 444.397461,618.094604 
	C442.288116,616.868652 440.226776,616.329651 437.820251,616.230713 
	C428.705750,615.855530 422.116699,609.366821 421.889740,600.286682 
	C421.811798,597.167114 421.004517,594.507812 419.744812,591.731934 
	C416.276581,584.089355 419.001526,575.625671 426.260162,571.413330 
	C428.629822,570.038208 430.440979,568.461609 431.917725,566.074951 
	C435.504730,560.277893 441.026489,557.809875 447.718903,558.805908 
	C450.904572,559.280090 452.051666,558.415527 452.902496,555.370850 
	C458.876190,533.993774 472.034485,519.138672 493.240601,511.847809 
	C495.473572,511.080139 496.820007,509.550446 498.085114,507.761749 
	C499.527008,505.723083 500.945526,503.659515 502.520569,501.726013 
	C503.744843,500.223175 505.355194,499.242645 507.333160,500.349548 
	C509.205231,501.397186 509.589355,503.130737 509.002472,505.097046 
	C508.726624,506.021332 508.328705,506.909210 508.041290,507.667877 
	C508.784943,509.027588 509.898102,508.739471 510.827576,508.702118 
	C536.426086,507.672943 561.677063,510.900787 586.841797,515.013855 
	C589.444946,515.439331 591.224182,515.040405 593.082397,513.217590 
	C598.347351,508.052765 604.299377,503.718658 610.864868,500.405304 
	C618.408447,496.598267 624.797729,491.356628 630.869751,485.625641 
	C632.946045,483.665924 635.251587,480.999969 638.063416,483.683411 
	C641.125854,486.605927 638.437500,489.072327 636.299744,491.247314 
	C635.395752,492.167053 634.429138,493.025330 632.959961,494.413147 
	C649.066223,495.351746 664.546753,499.203094 679.919006,493.857971 
	C692.554810,489.464355 701.593628,480.483704 709.365906,470.013275 
	C710.259277,468.809906 711.066223,467.542847 711.934448,466.320343 
	C713.413208,464.238068 715.253967,462.677551 717.764465,464.463501 
	C720.174072,466.177673 719.657715,468.606140 718.207153,470.666351 
	C715.525757,474.474945 712.846497,478.316162 709.815369,481.842133 
	C694.180115,500.029938 674.254883,506.755707 650.709412,503.719543 
	C645.924866,503.102600 641.104919,502.680695 636.287720,502.412537 
	C623.009888,501.673340 609.311340,507.427032 601.066406,517.188904 
	C604.729126,519.051208 608.832214,518.989746 612.554871,520.250916 
	C614.879150,521.038452 617.313416,522.020142 616.700745,524.931396 
	C616.055115,527.998962 613.672791,528.301575 610.806458,527.636963 
	C590.847412,523.009277 570.623352,519.945435 550.274658,517.670105 
	C548.032532,517.419373 545.759216,517.447388 543.288147,517.336609 
	C543.876709,519.597351 545.445190,520.411377 546.467041,521.647034 
	C548.315796,523.882568 551.573669,526.089050 548.410156,529.174927 
	C545.492737,532.020691 543.324768,529.031372 541.287415,527.168762 
	C538.705444,524.808228 536.020630,522.527649 533.687805,519.935669 
	C530.986328,516.934204 527.804199,516.193115 523.894104,516.165100 
	C510.969177,516.072632 498.211823,516.548706 486.179382,523.159668 
M430.272125,596.351929 
	C428.583191,604.029846 432.667542,609.736877 439.307709,608.351501 
	C442.738281,607.635803 444.862701,608.504822 447.329651,610.638245 
	C451.649963,614.374512 457.861115,613.384277 459.939178,608.438904 
	C461.484253,604.761841 463.471313,602.551636 467.335083,601.261414 
	C470.908844,600.068054 472.837036,596.817444 472.188934,592.919434 
	C471.600372,589.379761 469.932404,586.425476 465.588287,586.307983 
	C464.254669,598.877197 459.382843,604.883972 450.337433,605.357666 
	C441.504303,605.820190 435.060150,600.683594 433.299286,591.902161 
	C432.568604,588.258240 433.460876,584.897644 435.143097,581.823364 
	C439.014709,574.748108 445.764862,573.028442 453.544281,573.617920 
	C452.279877,568.538513 449.554169,566.537170 445.492767,566.299194 
	C441.419342,566.060547 438.772949,568.316833 437.629669,571.942078 
	C436.725403,574.809448 435.118622,576.276611 432.342896,577.254028 
	C425.884064,579.528442 424.172852,585.251892 428.163605,590.686035 
	C429.258148,592.176392 430.518585,593.509888 430.272125,596.351929 
M457.135437,587.341064 
	C455.582031,583.053223 452.540344,580.899414 447.983032,581.390320 
	C444.532349,581.761963 442.175293,583.787537 441.348328,587.203735 
	C440.559906,590.460510 441.087982,593.524536 443.770905,595.810791 
	C446.411224,598.060669 449.489868,598.494324 452.579712,596.964966 
	C456.196167,595.175110 457.931793,592.177307 457.135437,587.341064 
z"/>
</svg>